<svg width="36" height="36" viewBox="0 0 36 36" fill="none" xmlns="http://www.w3.org/2000/svg">
<path fill-rule="evenodd" clip-rule="evenodd" d="M15.1259 23.8644C15.086 23.8216 15.0543 23.7706 15.0327 23.7146C15.0111 23.6585 15 23.5984 15 23.5377C15 23.477 15.0111 23.4169 15.0327 23.3608C15.0543 23.3048 15.086 23.2538 15.1259 23.211L19.9649 17.9999L15.1259 12.7888C15.0454 12.7021 15.0002 12.5846 15.0002 12.4621C15.0002 12.3395 15.0454 12.222 15.1259 12.1353C15.2063 12.0487 15.3154 12 15.4292 12C15.543 12 15.6521 12.0487 15.7326 12.1353L20.8741 17.6731C20.914 17.716 20.9457 17.7669 20.9673 17.823C20.9889 17.8791 21 17.9392 21 17.9999C21 18.0606 20.9889 18.1207 20.9673 18.1768C20.9457 18.2328 20.914 18.2837 20.8741 18.3266L15.7326 23.8644C15.6928 23.9074 15.6455 23.9415 15.5934 23.9648C15.5414 23.988 15.4856 24 15.4292 24C15.3729 24 15.3171 23.988 15.265 23.9648C15.213 23.9415 15.1657 23.9074 15.1259 23.8644Z" fill="#333333"/>
</svg>
