<svg width="125" height="90" viewBox="0 0 125 90" fill="none" xmlns="http://www.w3.org/2000/svg">
<rect x="0.5" width="124" height="90" rx="8" fill="#F0F0F0"/>
<path d="M58 32L61 35L67 29M58.3 41H66.7C68.3802 41 69.2202 41 69.862 40.673C70.4265 40.3854 70.8854 39.9265 71.173 39.362C71.5 38.7202 71.5 37.8802 71.5 36.2V27.8C71.5 26.1198 71.5 25.2798 71.173 24.638C70.8854 24.0735 70.4265 23.6146 69.862 23.327C69.2202 23 68.3802 23 66.7 23H58.3C56.6198 23 55.7798 23 55.138 23.327C54.5735 23.6146 54.1146 24.0735 53.827 24.638C53.5 25.2798 53.5 26.1198 53.5 27.8V36.2C53.5 37.8802 53.5 38.7202 53.827 39.362C54.1146 39.9265 54.5735 40.3854 55.138 40.673C55.7798 41 56.6198 41 58.3 41Z" stroke="#5F5F5F" stroke-width="2" stroke-linecap="round" stroke-linejoin="round"/>
<path d="M42.714 70H41.557V66.191C41.0803 66.3643 40.634 66.5073 40.218 66.62C39.8106 66.724 39.36 66.776 38.866 66.776C38.0513 66.776 37.4186 66.5767 36.968 66.178C36.5173 65.7707 36.292 65.1857 36.292 64.423V60.718H37.449V64.254C37.449 64.7567 37.5703 65.1337 37.813 65.385C38.0556 65.6277 38.4543 65.749 39.009 65.749C39.477 65.749 39.8973 65.7013 40.27 65.606C40.6513 65.5107 41.0803 65.3807 41.557 65.216V60.718H42.714V70ZM47.6746 62.902C48.2379 62.902 48.7233 63.032 49.1306 63.292C49.5379 63.552 49.8499 63.9203 50.0666 64.397C50.2919 64.865 50.4046 65.4153 50.4046 66.048V66.737H45.9326C45.9499 67.5257 46.1363 68.128 46.4916 68.544C46.8469 68.9513 47.3453 69.155 47.9866 69.155C48.4026 69.155 48.7709 69.116 49.0916 69.038C49.4209 68.9513 49.7589 68.83 50.1056 68.674V69.675C49.7676 69.831 49.4339 69.9437 49.1046 70.013C48.7839 70.091 48.3939 70.13 47.9346 70.13C47.3106 70.13 46.7603 69.9957 46.2836 69.727C45.8069 69.4583 45.4343 69.0597 45.1656 68.531C44.8969 67.9937 44.7626 67.3393 44.7626 66.568C44.7626 65.8053 44.8839 65.151 45.1266 64.605C45.3693 64.059 45.7073 63.6387 46.1406 63.344C46.5826 63.0493 47.0939 62.902 47.6746 62.902ZM47.6746 63.838C47.1719 63.838 46.7733 64.0157 46.4786 64.371C46.1839 64.7177 46.0106 65.203 45.9586 65.827H49.2346C49.2346 65.4283 49.1783 65.0817 49.0656 64.787C48.9529 64.4923 48.7796 64.2627 48.5456 64.098C48.3203 63.9247 48.0299 63.838 47.6746 63.838ZM56.1586 63.032H57.3936L54.6116 66.386L57.6276 70H56.3146L53.3766 66.464V70H52.2456V63.032H53.3766V66.412L56.1586 63.032ZM58.4376 67.023V66.009H61.4146V67.023H58.4376ZM62.7812 65.814C62.7812 64.8 62.8765 63.9377 63.0672 63.227C63.2665 62.5077 63.5699 61.9357 63.9772 61.511C64.3932 61.0777 64.9262 60.7873 65.5762 60.64C66.0962 60.5187 66.6075 60.4103 67.1102 60.315C67.6129 60.2197 68.0852 60.133 68.5272 60.055L68.7222 61.056C68.5055 61.0907 68.2672 61.134 68.0072 61.186C67.7472 61.2293 67.4829 61.277 67.2142 61.329C66.9542 61.3723 66.6985 61.42 66.4472 61.472C66.2045 61.5153 65.9879 61.5587 65.7972 61.602C65.5285 61.6627 65.2859 61.7667 65.0692 61.914C64.8612 62.0527 64.6792 62.2433 64.5232 62.486C64.3759 62.7287 64.2545 63.0277 64.1592 63.383C64.0725 63.7383 64.0205 64.1587 64.0032 64.644H64.0812C64.1939 64.4793 64.3499 64.3103 64.5492 64.137C64.7485 63.9637 64.9869 63.8163 65.2642 63.695C65.5415 63.5737 65.8579 63.513 66.2132 63.513C66.7765 63.513 67.2489 63.6473 67.6302 63.916C68.0115 64.176 68.2975 64.54 68.4882 65.008C68.6875 65.476 68.7872 66.022 68.7872 66.646C68.7872 67.4173 68.6572 68.063 68.3972 68.583C68.1459 69.103 67.7949 69.493 67.3442 69.753C66.8935 70.0043 66.3692 70.13 65.7712 70.13C65.3205 70.13 64.9089 70.039 64.5362 69.857C64.1722 69.6663 63.8559 69.389 63.5872 69.025C63.3272 68.661 63.1279 68.2103 62.9892 67.673C62.8505 67.1357 62.7812 66.516 62.7812 65.814ZM65.8622 69.181C66.2089 69.181 66.5122 69.103 66.7722 68.947C67.0322 68.791 67.2315 68.5353 67.3702 68.18C67.5175 67.8247 67.5912 67.3523 67.5912 66.763C67.5912 66.0523 67.4699 65.4933 67.2272 65.086C66.9845 64.67 66.5859 64.462 66.0312 64.462C65.6759 64.462 65.3552 64.5487 65.0692 64.722C64.7832 64.8867 64.5405 65.0773 64.3412 65.294C64.1505 65.5107 64.0162 65.6927 63.9382 65.84C63.9382 66.2647 63.9642 66.6763 64.0162 67.075C64.0769 67.4737 64.1765 67.8333 64.3152 68.154C64.4625 68.466 64.6575 68.7173 64.9002 68.908C65.1515 69.09 65.4722 69.181 65.8622 69.181ZM76.4028 66.503C76.4028 67.0837 76.3291 67.5993 76.1818 68.05C76.0431 68.492 75.8394 68.869 75.5708 69.181C75.3021 69.493 74.9771 69.7313 74.5958 69.896C74.2144 70.052 73.7898 70.13 73.3218 70.13C72.8884 70.13 72.4854 70.052 72.1128 69.896C71.7488 69.7313 71.4281 69.493 71.1508 69.181C70.8821 68.869 70.6741 68.492 70.5268 68.05C70.3794 67.5993 70.3058 67.0837 70.3058 66.503C70.3058 65.7317 70.4271 65.0817 70.6698 64.553C70.9211 64.0157 71.2764 63.6083 71.7358 63.331C72.1951 63.045 72.7368 62.902 73.3608 62.902C73.9588 62.902 74.4831 63.045 74.9338 63.331C75.3931 63.6083 75.7528 64.0157 76.0128 64.553C76.2728 65.0817 76.4028 65.7317 76.4028 66.503ZM71.4758 66.503C71.4758 67.049 71.5408 67.5257 71.6708 67.933C71.8008 68.3317 72.0044 68.6393 72.2818 68.856C72.5591 69.0727 72.9144 69.181 73.3478 69.181C73.7811 69.181 74.1364 69.0727 74.4138 68.856C74.6911 68.6393 74.8948 68.3317 75.0248 67.933C75.1634 67.5257 75.2328 67.049 75.2328 66.503C75.2328 65.9483 75.1634 65.476 75.0248 65.086C74.8948 64.696 74.6911 64.397 74.4138 64.189C74.1364 63.9723 73.7768 63.864 73.3348 63.864C72.6848 63.864 72.2124 64.098 71.9178 64.566C71.6231 65.034 71.4758 65.6797 71.4758 66.503ZM82.1968 63.032H83.4318L80.6498 66.386L83.6658 70H82.3528L79.4148 66.464V70H78.2838V63.032H79.4148V66.412L82.1968 63.032ZM87.4197 70.13C86.8304 70.13 86.3104 70.0043 85.8597 69.753C85.409 69.5017 85.0537 69.1117 84.7937 68.583C84.5424 68.0543 84.4167 67.3783 84.4167 66.555C84.4167 65.697 84.551 64.9993 84.8197 64.462C85.0884 63.9247 85.4524 63.5303 85.9117 63.279C86.3797 63.0277 86.9084 62.902 87.4977 62.902C87.8357 62.902 88.1607 62.941 88.4727 63.019C88.7934 63.0883 89.0534 63.175 89.2527 63.279L88.9017 64.228C88.7024 64.15 88.4684 64.0763 88.1997 64.007C87.9397 63.9377 87.697 63.903 87.4717 63.903C87.047 63.903 86.696 64.0027 86.4187 64.202C86.1414 64.4013 85.9334 64.696 85.7947 65.086C85.656 65.476 85.5867 65.9613 85.5867 66.542C85.5867 67.0967 85.656 67.569 85.7947 67.959C85.9334 68.349 86.137 68.6437 86.4057 68.843C86.683 69.0423 87.021 69.142 87.4197 69.142C87.775 69.142 88.0914 69.103 88.3687 69.025C88.646 68.947 88.9017 68.8517 89.1357 68.739V69.753C88.9104 69.8743 88.6634 69.9653 88.3947 70.026C88.126 70.0953 87.801 70.13 87.4197 70.13Z" fill="black"/>
</svg>
