<svg width="125" height="90" viewBox="0 0 125 90" fill="none" xmlns="http://www.w3.org/2000/svg">
<rect x="0.5" width="124" height="90" rx="8" fill="#F0F0F0"/>
<path d="M70.5 30.5V26.8C70.5 25.1198 70.5 24.2798 70.173 23.638C69.8854 23.0735 69.4265 22.6146 68.862 22.327C68.2202 22 67.3802 22 65.7 22H59.3C57.6198 22 56.7798 22 56.138 22.327C55.5735 22.6146 55.1146 23.0735 54.827 23.638C54.5 24.2798 54.5 25.1198 54.5 26.8V37.2C54.5 38.8802 54.5 39.7202 54.827 40.362C55.1146 40.9265 55.5735 41.3854 56.138 41.673C56.7798 42 57.6198 42 59.3 42H62.5M68.5 41V35M65.5 38H71.5" stroke="#5F5F5F" stroke-width="2" stroke-linecap="round" stroke-linejoin="round"/>
<path d="M37.4957 61.615C37.0364 61.615 36.6247 61.7017 36.2607 61.875C35.8967 62.0397 35.5847 62.2867 35.3247 62.616C35.0734 62.9367 34.8784 63.331 34.7397 63.799C34.6097 64.2583 34.5447 64.7783 34.5447 65.359C34.5447 66.1217 34.6531 66.7847 34.8697 67.348C35.0864 67.9113 35.4114 68.3447 35.8447 68.648C36.2867 68.9513 36.8327 69.103 37.4827 69.103C37.8641 69.103 38.2237 69.0683 38.5617 68.999C38.9084 68.9297 39.2507 68.843 39.5887 68.739V69.753C39.2594 69.883 38.9214 69.9783 38.5747 70.039C38.2281 70.0997 37.8121 70.13 37.3267 70.13C36.4341 70.13 35.6887 69.935 35.0907 69.545C34.5014 69.155 34.0594 68.6003 33.7647 67.881C33.4701 67.1617 33.3227 66.3167 33.3227 65.346C33.3227 64.644 33.4137 64.0027 33.5957 63.422C33.7777 62.8413 34.0464 62.3387 34.4017 61.914C34.7571 61.4893 35.1947 61.1643 35.7147 60.939C36.2347 60.705 36.8327 60.588 37.5087 60.588C37.9507 60.588 38.3797 60.6357 38.7957 60.731C39.2117 60.8263 39.5887 60.9607 39.9267 61.134L39.4717 62.122C39.2031 61.992 38.8997 61.875 38.5617 61.771C38.2324 61.667 37.8771 61.615 37.4957 61.615ZM46.1295 63.994H43.9845V70H42.8665V63.994H40.7475V63.032H46.1295V63.994ZM50.7771 62.902C51.5831 62.902 52.2288 63.201 52.7141 63.799C53.2081 64.397 53.4551 65.2983 53.4551 66.503C53.4551 67.2917 53.3424 67.959 53.1171 68.505C52.8918 69.0423 52.5754 69.4497 52.1681 69.727C51.7694 69.9957 51.3014 70.13 50.7641 70.13C50.4261 70.13 50.1271 70.0823 49.8671 69.987C49.6158 69.8917 49.3991 69.7703 49.2171 69.623C49.0351 69.467 48.8791 69.298 48.7491 69.116H48.6711C48.6884 69.2633 48.7058 69.4497 48.7231 69.675C48.7404 69.9003 48.7491 70.0953 48.7491 70.26V73.12H47.6181V63.032H48.5411L48.6971 63.981H48.7491C48.8791 63.7817 49.0351 63.5997 49.2171 63.435C49.3991 63.2703 49.6158 63.1403 49.8671 63.045C50.1271 62.9497 50.4304 62.902 50.7771 62.902ZM50.5561 63.864C50.1228 63.864 49.7718 63.955 49.5031 64.137C49.2431 64.3103 49.0524 64.5747 48.9311 64.93C48.8098 65.2853 48.7491 65.736 48.7491 66.282V66.503C48.7491 67.075 48.8011 67.5603 48.9051 67.959C49.0178 68.3577 49.2084 68.661 49.4771 68.869C49.7458 69.077 50.1141 69.181 50.5821 69.181C50.9721 69.181 51.2928 69.064 51.5441 68.83C51.7954 68.596 51.9818 68.2797 52.1031 67.881C52.2244 67.4737 52.2851 67.01 52.2851 66.49C52.2851 65.6927 52.1421 65.0557 51.8561 64.579C51.5788 64.1023 51.1454 63.864 50.5561 63.864ZM57.8554 62.915C58.6528 62.915 59.2464 63.1013 59.6364 63.474C60.0351 63.8467 60.2344 64.4403 60.2344 65.255V70H59.4154L59.1944 69.012H59.1424C58.9518 69.2633 58.7568 69.4757 58.5574 69.649C58.3668 69.8137 58.1414 69.935 57.8814 70.013C57.6301 70.091 57.3181 70.13 56.9454 70.13C56.5554 70.13 56.2044 70.0563 55.8924 69.909C55.5804 69.7617 55.3334 69.5363 55.1514 69.233C54.9694 68.921 54.8784 68.531 54.8784 68.063C54.8784 67.3697 55.1341 66.8367 55.6454 66.464C56.1568 66.0827 56.9454 65.8747 58.0114 65.84L59.1164 65.801V65.385C59.1164 64.8043 58.9994 64.4013 58.7654 64.176C58.5401 63.9507 58.2151 63.838 57.7904 63.838C57.4524 63.838 57.1274 63.8943 56.8154 64.007C56.5121 64.111 56.2218 64.2323 55.9444 64.371L55.5934 63.513C55.8881 63.3483 56.2304 63.2097 56.6204 63.097C57.0104 62.9757 57.4221 62.915 57.8554 62.915ZM58.1674 66.633C57.3701 66.6677 56.8154 66.8063 56.5034 67.049C56.2001 67.2917 56.0484 67.634 56.0484 68.076C56.0484 68.466 56.1568 68.752 56.3734 68.934C56.5901 69.116 56.8718 69.207 57.2184 69.207C57.7558 69.207 58.2064 69.0467 58.5704 68.726C58.9344 68.3967 59.1164 67.894 59.1164 67.218V66.594L58.1674 66.633ZM63.5837 63.032V65.931H67.0677V63.032H68.1987V70H67.0677V66.893H63.5837V70H62.4527V63.032H63.5837ZM71.5136 67.283C71.5136 67.361 71.5093 67.4737 71.5006 67.621C71.5006 67.7597 71.4963 67.9113 71.4876 68.076C71.4789 68.232 71.4703 68.3837 71.4616 68.531C71.4529 68.6697 71.4443 68.7823 71.4356 68.869L74.9196 63.032H76.2976V70H75.2446V65.892C75.2446 65.7533 75.2446 65.5713 75.2446 65.346C75.2533 65.1207 75.2619 64.8997 75.2706 64.683C75.2793 64.4577 75.2879 64.2887 75.2966 64.176L71.8516 70H70.4476V63.032H71.5136V67.283ZM85.0955 72.418H84.0035V70H78.5695V63.032H79.7005V69.038H83.0285V63.032H84.1595V69.051H85.0955V72.418ZM89.048 62.915C89.8453 62.915 90.439 63.1013 90.829 63.474C91.2277 63.8467 91.427 64.4403 91.427 65.255V70H90.608L90.387 69.012H90.335C90.1443 69.2633 89.9493 69.4757 89.75 69.649C89.5593 69.8137 89.334 69.935 89.074 70.013C88.8227 70.091 88.5107 70.13 88.138 70.13C87.748 70.13 87.397 70.0563 87.085 69.909C86.773 69.7617 86.526 69.5363 86.344 69.233C86.162 68.921 86.071 68.531 86.071 68.063C86.071 67.3697 86.3267 66.8367 86.838 66.464C87.3493 66.0827 88.138 65.8747 89.204 65.84L90.309 65.801V65.385C90.309 64.8043 90.192 64.4013 89.958 64.176C89.7327 63.9507 89.4077 63.838 88.983 63.838C88.645 63.838 88.32 63.8943 88.008 64.007C87.7047 64.111 87.4143 64.2323 87.137 64.371L86.786 63.513C87.0807 63.3483 87.423 63.2097 87.813 63.097C88.203 62.9757 88.6147 62.915 89.048 62.915ZM89.36 66.633C88.5627 66.6677 88.008 66.8063 87.696 67.049C87.3927 67.2917 87.241 67.634 87.241 68.076C87.241 68.466 87.3493 68.752 87.566 68.934C87.7827 69.116 88.0643 69.207 88.411 69.207C88.9483 69.207 89.399 69.0467 89.763 68.726C90.127 68.3967 90.309 67.894 90.309 67.218V66.594L89.36 66.633Z" fill="black"/>
</svg>
