<svg width="125" height="90" viewBox="0 0 125 90" fill="none" xmlns="http://www.w3.org/2000/svg">
<rect x="0.5" width="124" height="90" rx="8" fill="#F0F0F0"/>
<path d="M53 29H71M53 35H71M62 23V41M57.8 23H66.2C67.8802 23 68.7202 23 69.362 23.327C69.9265 23.6146 70.3854 24.0735 70.673 24.638C71 25.2798 71 26.1198 71 27.8V36.2C71 37.8802 71 38.7202 70.673 39.362C70.3854 39.9265 69.9265 40.3854 69.362 40.673C68.7202 41 67.8802 41 66.2 41H57.8C56.1198 41 55.2798 41 54.638 40.673C54.0735 40.3854 53.6146 39.9265 53.327 39.362C53 38.7202 53 37.8802 53 36.2V27.8C53 26.1198 53 25.2798 53.327 24.638C53.6146 24.0735 54.0735 23.6146 54.638 23.327C55.2798 23 56.1198 23 57.8 23Z" stroke="#5F5F5F" stroke-width="2" stroke-linecap="round" stroke-linejoin="round"/>
<path d="M41.0145 70H39.8575V61.745H37.1535V60.718H43.6925V61.745H41.0145V70ZM46.5359 62.915C47.3332 62.915 47.9269 63.1013 48.3169 63.474C48.7156 63.8467 48.9149 64.4403 48.9149 65.255V70H48.0959L47.8749 69.012H47.8229C47.6322 69.2633 47.4372 69.4757 47.2379 69.649C47.0472 69.8137 46.8219 69.935 46.5619 70.013C46.3106 70.091 45.9986 70.13 45.6259 70.13C45.2359 70.13 44.8849 70.0563 44.5729 69.909C44.2609 69.7617 44.0139 69.5363 43.8319 69.233C43.6499 68.921 43.5589 68.531 43.5589 68.063C43.5589 67.3697 43.8146 66.8367 44.3259 66.464C44.8372 66.0827 45.6259 65.8747 46.6919 65.84L47.7969 65.801V65.385C47.7969 64.8043 47.6799 64.4013 47.4459 64.176C47.2206 63.9507 46.8956 63.838 46.4709 63.838C46.1329 63.838 45.8079 63.8943 45.4959 64.007C45.1926 64.111 44.9022 64.2323 44.6249 64.371L44.2739 63.513C44.5686 63.3483 44.9109 63.2097 45.3009 63.097C45.6909 62.9757 46.1026 62.915 46.5359 62.915ZM46.8479 66.633C46.0506 66.6677 45.4959 66.8063 45.1839 67.049C44.8806 67.2917 44.7289 67.634 44.7289 68.076C44.7289 68.466 44.8372 68.752 45.0539 68.934C45.2706 69.116 45.5522 69.207 45.8989 69.207C46.4362 69.207 46.8869 69.0467 47.2509 68.726C47.6149 68.3967 47.7969 67.894 47.7969 67.218V66.594L46.8479 66.633ZM50.7952 65.814C50.7952 64.8 50.8905 63.9377 51.0812 63.227C51.2805 62.5077 51.5838 61.9357 51.9912 61.511C52.4072 61.0777 52.9402 60.7873 53.5902 60.64C54.1102 60.5187 54.6215 60.4103 55.1242 60.315C55.6268 60.2197 56.0992 60.133 56.5412 60.055L56.7362 61.056C56.5195 61.0907 56.2812 61.134 56.0212 61.186C55.7612 61.2293 55.4968 61.277 55.2282 61.329C54.9682 61.3723 54.7125 61.42 54.4612 61.472C54.2185 61.5153 54.0018 61.5587 53.8112 61.602C53.5425 61.6627 53.2998 61.7667 53.0832 61.914C52.8752 62.0527 52.6932 62.2433 52.5372 62.486C52.3898 62.7287 52.2685 63.0277 52.1732 63.383C52.0865 63.7383 52.0345 64.1587 52.0172 64.644H52.0952C52.2078 64.4793 52.3638 64.3103 52.5632 64.137C52.7625 63.9637 53.0008 63.8163 53.2782 63.695C53.5555 63.5737 53.8718 63.513 54.2272 63.513C54.7905 63.513 55.2628 63.6473 55.6442 63.916C56.0255 64.176 56.3115 64.54 56.5022 65.008C56.7015 65.476 56.8012 66.022 56.8012 66.646C56.8012 67.4173 56.6712 68.063 56.4112 68.583C56.1598 69.103 55.8088 69.493 55.3582 69.753C54.9075 70.0043 54.3832 70.13 53.7852 70.13C53.3345 70.13 52.9228 70.039 52.5502 69.857C52.1862 69.6663 51.8698 69.389 51.6012 69.025C51.3412 68.661 51.1418 68.2103 51.0032 67.673C50.8645 67.1357 50.7952 66.516 50.7952 65.814ZM53.8762 69.181C54.2228 69.181 54.5262 69.103 54.7862 68.947C55.0462 68.791 55.2455 68.5353 55.3842 68.18C55.5315 67.8247 55.6052 67.3523 55.6052 66.763C55.6052 66.0523 55.4838 65.4933 55.2412 65.086C54.9985 64.67 54.5998 64.462 54.0452 64.462C53.6898 64.462 53.3692 64.5487 53.0832 64.722C52.7972 64.8867 52.5545 65.0773 52.3552 65.294C52.1645 65.5107 52.0302 65.6927 51.9522 65.84C51.9522 66.2647 51.9782 66.6763 52.0302 67.075C52.0908 67.4737 52.1905 67.8333 52.3292 68.154C52.4765 68.466 52.6715 68.7173 52.9142 68.908C53.1655 69.09 53.4862 69.181 53.8762 69.181ZM63.7537 70H62.6097V63.981H60.6987C60.6207 65.0817 60.5167 66.022 60.3867 66.802C60.2654 67.5733 60.1094 68.2017 59.9187 68.687C59.7367 69.1723 59.5157 69.5277 59.2557 69.753C58.9957 69.9783 58.6881 70.091 58.3327 70.091C58.2201 70.091 58.1074 70.0823 57.9947 70.065C57.8907 70.0563 57.8041 70.0347 57.7347 70V69.142C57.7867 69.1593 57.8431 69.1723 57.9037 69.181C57.9644 69.1897 58.0251 69.194 58.0857 69.194C58.2591 69.194 58.4151 69.116 58.5537 68.96C58.7011 68.804 58.8311 68.5657 58.9437 68.245C59.0651 67.9243 59.1734 67.5213 59.2687 67.036C59.3641 66.542 59.4464 65.9613 59.5157 65.294C59.5937 64.6267 59.6631 63.8727 59.7237 63.032H63.7537V70ZM67.0718 67.283C67.0718 67.361 67.0675 67.4737 67.0588 67.621C67.0588 67.7597 67.0545 67.9113 67.0458 68.076C67.0371 68.232 67.0285 68.3837 67.0198 68.531C67.0111 68.6697 67.0025 68.7823 66.9938 68.869L70.4778 63.032H71.8558V70H70.8028V65.892C70.8028 65.7533 70.8028 65.5713 70.8028 65.346C70.8115 65.1207 70.8201 64.8997 70.8288 64.683C70.8375 64.4577 70.8461 64.2887 70.8548 64.176L67.4098 70H66.0058V63.032H67.0718V67.283ZM80.6537 72.418H79.5617V70H74.1277V63.032H75.2587V69.038H78.5867V63.032H79.7177V69.051H80.6537V72.418ZM84.6062 62.915C85.4035 62.915 85.9972 63.1013 86.3872 63.474C86.7859 63.8467 86.9852 64.4403 86.9852 65.255V70H86.1662L85.9452 69.012H85.8932C85.7025 69.2633 85.5075 69.4757 85.3082 69.649C85.1175 69.8137 84.8922 69.935 84.6322 70.013C84.3809 70.091 84.0689 70.13 83.6962 70.13C83.3062 70.13 82.9552 70.0563 82.6432 69.909C82.3312 69.7617 82.0842 69.5363 81.9022 69.233C81.7202 68.921 81.6292 68.531 81.6292 68.063C81.6292 67.3697 81.8849 66.8367 82.3962 66.464C82.9075 66.0827 83.6962 65.8747 84.7622 65.84L85.8672 65.801V65.385C85.8672 64.8043 85.7502 64.4013 85.5162 64.176C85.2909 63.9507 84.9659 63.838 84.5412 63.838C84.2032 63.838 83.8782 63.8943 83.5662 64.007C83.2629 64.111 82.9725 64.2323 82.6952 64.371L82.3442 63.513C82.6389 63.3483 82.9812 63.2097 83.3712 63.097C83.7612 62.9757 84.1729 62.915 84.6062 62.915ZM84.9182 66.633C84.1209 66.6677 83.5662 66.8063 83.2542 67.049C82.9509 67.2917 82.7992 67.634 82.7992 68.076C82.7992 68.466 82.9075 68.752 83.1242 68.934C83.3409 69.116 83.6225 69.207 83.9692 69.207C84.5065 69.207 84.9572 69.0467 85.3212 68.726C85.6852 68.3967 85.8672 67.894 85.8672 67.218V66.594L84.9182 66.633Z" fill="black"/>
</svg>
