<svg width="125" height="90" viewBox="0 0 125 90" fill="none" xmlns="http://www.w3.org/2000/svg">
<rect x="0.5" width="124" height="90" rx="8" fill="#F0F0F0"/>
<path d="M63.5 23.5V26.2C63.5 27.8802 63.5 28.7202 63.827 29.362C64.1146 29.9265 64.5735 30.3854 65.138 30.673C65.7798 31 66.6198 31 68.3 31H71M71.5 32.9882V36.2C71.5 37.8802 71.5 38.7202 71.173 39.362C70.8854 39.9265 70.4265 40.3854 69.862 40.673C69.2202 41 68.3802 41 66.7 41H58.3C56.6198 41 55.7798 41 55.138 40.673C54.5735 40.3854 54.1146 39.9265 53.827 39.362C53.5 38.7202 53.5 37.8802 53.5 36.2V27.8C53.5 26.1198 53.5 25.2798 53.827 24.638C54.1146 24.0735 54.5735 23.6146 55.138 23.327C55.7798 23 56.6198 23 58.3 23H61.5118C62.2455 23 62.6124 23 62.9577 23.0829C63.2638 23.1564 63.5564 23.2776 63.8249 23.4421C64.1276 23.6276 64.387 23.887 64.9059 24.4059L70.0941 29.5941C70.613 30.113 70.8724 30.3724 71.0579 30.6751C71.2224 30.9436 71.3436 31.2362 71.4171 31.5423C71.5 31.8876 71.5 32.2545 71.5 32.9882Z" stroke="#5F5F5F" stroke-width="2" stroke-linecap="round" stroke-linejoin="round"/>
<path d="M45.7763 61.615C45.317 61.615 44.9053 61.7017 44.5413 61.875C44.1773 62.0397 43.8653 62.2867 43.6053 62.616C43.354 62.9367 43.159 63.331 43.0203 63.799C42.8903 64.2583 42.8253 64.7783 42.8253 65.359C42.8253 66.1217 42.9336 66.7847 43.1503 67.348C43.367 67.9113 43.692 68.3447 44.1253 68.648C44.5673 68.9513 45.1133 69.103 45.7633 69.103C46.1446 69.103 46.5043 69.0683 46.8423 68.999C47.189 68.9297 47.5313 68.843 47.8693 68.739V69.753C47.54 69.883 47.202 69.9783 46.8553 70.039C46.5086 70.0997 46.0926 70.13 45.6073 70.13C44.7146 70.13 43.9693 69.935 43.3713 69.545C42.782 69.155 42.34 68.6003 42.0453 67.881C41.7506 67.1617 41.6033 66.3167 41.6033 65.346C41.6033 64.644 41.6943 64.0027 41.8763 63.422C42.0583 62.8413 42.327 62.3387 42.6823 61.914C43.0376 61.4893 43.4753 61.1643 43.9953 60.939C44.5153 60.705 45.1133 60.588 45.7893 60.588C46.2313 60.588 46.6603 60.6357 47.0763 60.731C47.4923 60.8263 47.8693 60.9607 48.2073 61.134L47.7523 62.122C47.4836 61.992 47.1803 61.875 46.8423 61.771C46.513 61.667 46.1576 61.615 45.7763 61.615ZM54.4101 63.994H52.2651V70H51.1471V63.994H49.0281V63.032H54.4101V63.994ZM56.9647 67.283C56.9647 67.361 56.9603 67.4737 56.9517 67.621C56.9517 67.7597 56.9473 67.9113 56.9387 68.076C56.93 68.232 56.9213 68.3837 56.9127 68.531C56.904 68.6697 56.8953 68.7823 56.8867 68.869L60.3707 63.032H61.7487V70H60.6957V65.892C60.6957 65.7533 60.6957 65.5713 60.6957 65.346C60.7043 65.1207 60.713 64.8997 60.7217 64.683C60.7303 64.4577 60.739 64.2887 60.7477 64.176L57.3027 70H55.8987V63.032H56.9647V67.283ZM67.9336 63.032H69.1686L66.3866 66.386L69.4026 70H68.0896L65.1516 66.464V70H64.0206V63.032H65.1516V66.412L67.9336 63.032ZM73.0654 62.902C73.6288 62.902 74.1141 63.032 74.5214 63.292C74.9288 63.552 75.2408 63.9203 75.4574 64.397C75.6828 64.865 75.7954 65.4153 75.7954 66.048V66.737H71.3234C71.3408 67.5257 71.5271 68.128 71.8824 68.544C72.2378 68.9513 72.7361 69.155 73.3774 69.155C73.7934 69.155 74.1618 69.116 74.4824 69.038C74.8118 68.9513 75.1498 68.83 75.4964 68.674V69.675C75.1584 69.831 74.8248 69.9437 74.4954 70.013C74.1748 70.091 73.7848 70.13 73.3254 70.13C72.7014 70.13 72.1511 69.9957 71.6744 69.727C71.1978 69.4583 70.8251 69.0597 70.5564 68.531C70.2878 67.9937 70.1534 67.3393 70.1534 66.568C70.1534 65.8053 70.2748 65.151 70.5174 64.605C70.7601 64.059 71.0981 63.6387 71.5314 63.344C71.9734 63.0493 72.4848 62.902 73.0654 62.902ZM73.0654 63.838C72.5628 63.838 72.1641 64.0157 71.8694 64.371C71.5748 64.7177 71.4014 65.203 71.3494 65.827H74.6254C74.6254 65.4283 74.5691 65.0817 74.4564 64.787C74.3438 64.4923 74.1704 64.2627 73.9364 64.098C73.7111 63.9247 73.4208 63.838 73.0654 63.838ZM80.7954 62.902C81.6014 62.902 82.247 63.201 82.7324 63.799C83.2264 64.397 83.4734 65.2983 83.4734 66.503C83.4734 67.2917 83.3607 67.959 83.1354 68.505C82.91 69.0423 82.5937 69.4497 82.1864 69.727C81.7877 69.9957 81.3197 70.13 80.7824 70.13C80.4444 70.13 80.1454 70.0823 79.8854 69.987C79.634 69.8917 79.4174 69.7703 79.2354 69.623C79.0534 69.467 78.8974 69.298 78.7674 69.116H78.6894C78.7067 69.2633 78.724 69.4497 78.7414 69.675C78.7587 69.9003 78.7674 70.0953 78.7674 70.26V73.12H77.6364V63.032H78.5594L78.7154 63.981H78.7674C78.8974 63.7817 79.0534 63.5997 79.2354 63.435C79.4174 63.2703 79.634 63.1403 79.8854 63.045C80.1454 62.9497 80.4487 62.902 80.7954 62.902ZM80.5744 63.864C80.141 63.864 79.79 63.955 79.5214 64.137C79.2614 64.3103 79.0707 64.5747 78.9494 64.93C78.828 65.2853 78.7674 65.736 78.7674 66.282V66.503C78.7674 67.075 78.8194 67.5603 78.9234 67.959C79.036 68.3577 79.2267 68.661 79.4954 68.869C79.764 69.077 80.1324 69.181 80.6004 69.181C80.9904 69.181 81.311 69.064 81.5624 68.83C81.8137 68.596 82 68.2797 82.1214 67.881C82.2427 67.4737 82.3034 67.01 82.3034 66.49C82.3034 65.6927 82.1604 65.0557 81.8744 64.579C81.597 64.1023 81.1637 63.864 80.5744 63.864Z" fill="black"/>
</svg>
