<svg width="125" height="90" viewBox="0 0 125 90" fill="none" xmlns="http://www.w3.org/2000/svg">
<rect x="0.5" width="124" height="90" rx="8" fill="#F0F0F0"/>
<path d="M63.5 27H55.7C54.5799 27 54.0198 27 53.592 27.218C53.2157 27.4097 52.9097 27.7157 52.718 28.092C52.5 28.5198 52.5 29.0799 52.5 30.2V33.8C52.5 34.9201 52.5 35.4802 52.718 35.908C52.9097 36.2843 53.2157 36.5903 53.592 36.782C54.0198 37 54.5799 37 55.7 37H63.5M67.5 27H69.3C70.4201 27 70.9802 27 71.408 27.218C71.7843 27.4097 72.0903 27.7157 72.282 28.092C72.5 28.5198 72.5 29.0799 72.5 30.2V33.8C72.5 34.9201 72.5 35.4802 72.282 35.908C72.0903 36.2843 71.7843 36.5903 71.408 36.782C70.9802 37 70.4201 37 69.3 37H67.5M67.5 41L67.5 23M70 23L65 23M70 41L65 41" stroke="#5F5F5F" stroke-width="2" stroke-linecap="round" stroke-linejoin="round"/>
<path d="M19.2149 70H18.0579V61.745H15.3539V60.718H21.8929V61.745H19.2149V70ZM24.953 62.902C25.5164 62.902 26.0017 63.032 26.409 63.292C26.8164 63.552 27.1284 63.9203 27.345 64.397C27.5704 64.865 27.683 65.4153 27.683 66.048V66.737H23.211C23.2284 67.5257 23.4147 68.128 23.77 68.544C24.1254 68.9513 24.6237 69.155 25.265 69.155C25.681 69.155 26.0494 69.116 26.37 69.038C26.6994 68.9513 27.0374 68.83 27.384 68.674V69.675C27.046 69.831 26.7124 69.9437 26.383 70.013C26.0624 70.091 25.6724 70.13 25.213 70.13C24.589 70.13 24.0387 69.9957 23.562 69.727C23.0854 69.4583 22.7127 69.0597 22.444 68.531C22.1754 67.9937 22.041 67.3393 22.041 66.568C22.041 65.8053 22.1624 65.151 22.405 64.605C22.6477 64.059 22.9857 63.6387 23.419 63.344C23.861 63.0493 24.3724 62.902 24.953 62.902ZM24.953 63.838C24.4504 63.838 24.0517 64.0157 23.757 64.371C23.4624 64.7177 23.289 65.203 23.237 65.827H26.513C26.513 65.4283 26.4567 65.0817 26.344 64.787C26.2314 64.4923 26.058 64.2627 25.824 64.098C25.5987 63.9247 25.3084 63.838 24.953 63.838ZM33.437 63.032H34.672L31.89 66.386L34.906 70H33.593L30.655 66.464V70H29.524V63.032H30.655V66.412L33.437 63.032ZM38.6598 70.13C38.0705 70.13 37.5505 70.0043 37.0998 69.753C36.6492 69.5017 36.2938 69.1117 36.0338 68.583C35.7825 68.0543 35.6568 67.3783 35.6568 66.555C35.6568 65.697 35.7912 64.9993 36.0598 64.462C36.3285 63.9247 36.6925 63.5303 37.1518 63.279C37.6198 63.0277 38.1485 62.902 38.7378 62.902C39.0758 62.902 39.4008 62.941 39.7128 63.019C40.0335 63.0883 40.2935 63.175 40.4928 63.279L40.1418 64.228C39.9425 64.15 39.7085 64.0763 39.4398 64.007C39.1798 63.9377 38.9372 63.903 38.7118 63.903C38.2872 63.903 37.9362 64.0027 37.6588 64.202C37.3815 64.4013 37.1735 64.696 37.0348 65.086C36.8962 65.476 36.8268 65.9613 36.8268 66.542C36.8268 67.0967 36.8962 67.569 37.0348 67.959C37.1735 68.349 37.3772 68.6437 37.6458 68.843C37.9232 69.0423 38.2612 69.142 38.6598 69.142C39.0152 69.142 39.3315 69.103 39.6088 69.025C39.8862 68.947 40.1418 68.8517 40.3758 68.739V69.753C40.1505 69.8743 39.9035 69.9653 39.6348 70.026C39.3662 70.0953 39.0412 70.13 38.6598 70.13ZM46.7262 63.994H44.5812V70H43.4632V63.994H41.3442V63.032H46.7262V63.994ZM53.8335 66.503C53.8335 67.0837 53.7599 67.5993 53.6125 68.05C53.4739 68.492 53.2702 68.869 53.0015 69.181C52.7329 69.493 52.4079 69.7313 52.0265 69.896C51.6452 70.052 51.2205 70.13 50.7525 70.13C50.3192 70.13 49.9162 70.052 49.5435 69.896C49.1795 69.7313 48.8589 69.493 48.5815 69.181C48.3129 68.869 48.1049 68.492 47.9575 68.05C47.8102 67.5993 47.7365 67.0837 47.7365 66.503C47.7365 65.7317 47.8579 65.0817 48.1005 64.553C48.3519 64.0157 48.7072 63.6083 49.1665 63.331C49.6259 63.045 50.1675 62.902 50.7915 62.902C51.3895 62.902 51.9139 63.045 52.3645 63.331C52.8239 63.6083 53.1835 64.0157 53.4435 64.553C53.7035 65.0817 53.8335 65.7317 53.8335 66.503ZM48.9065 66.503C48.9065 67.049 48.9715 67.5257 49.1015 67.933C49.2315 68.3317 49.4352 68.6393 49.7125 68.856C49.9899 69.0727 50.3452 69.181 50.7785 69.181C51.2119 69.181 51.5672 69.0727 51.8445 68.856C52.1219 68.6393 52.3255 68.3317 52.4555 67.933C52.5942 67.5257 52.6635 67.049 52.6635 66.503C52.6635 65.9483 52.5942 65.476 52.4555 65.086C52.3255 64.696 52.1219 64.397 51.8445 64.189C51.5672 63.9723 51.2075 63.864 50.7655 63.864C50.1155 63.864 49.6432 64.098 49.3485 64.566C49.0539 65.034 48.9065 65.6797 48.9065 66.503ZM61.0316 64.787C61.0316 65.2203 60.9103 65.5583 60.6676 65.801C60.4249 66.0437 60.1086 66.2083 59.7186 66.295V66.347C60.1259 66.4077 60.4813 66.5637 60.7846 66.815C61.0879 67.0577 61.2396 67.439 61.2396 67.959C61.2396 68.2537 61.1876 68.5267 61.0836 68.778C60.9883 69.0293 60.8323 69.246 60.6156 69.428C60.3989 69.61 60.1216 69.753 59.7836 69.857C59.4456 69.9523 59.0383 70 58.5616 70H55.7146V63.032H58.5486C59.0253 63.032 59.4499 63.0883 59.8226 63.201C60.1953 63.305 60.4899 63.487 60.7066 63.747C60.9233 63.9983 61.0316 64.345 61.0316 64.787ZM60.0696 67.959C60.0696 67.5603 59.9266 67.2743 59.6406 67.101C59.3633 66.9277 58.9559 66.841 58.4186 66.841H56.8456V69.077H58.4446C58.9646 69.077 59.3633 68.9947 59.6406 68.83C59.9266 68.6567 60.0696 68.3663 60.0696 67.959ZM59.8876 64.93C59.8876 64.6007 59.7749 64.3623 59.5496 64.215C59.3329 64.059 58.9819 63.981 58.4966 63.981H56.8456V65.892H58.2886C58.8173 65.892 59.2159 65.814 59.4846 65.658C59.7533 65.502 59.8876 65.2593 59.8876 64.93ZM68.7316 66.503C68.7316 67.0837 68.6579 67.5993 68.5106 68.05C68.3719 68.492 68.1683 68.869 67.8996 69.181C67.6309 69.493 67.3059 69.7313 66.9246 69.896C66.5433 70.052 66.1186 70.13 65.6506 70.13C65.2173 70.13 64.8143 70.052 64.4416 69.896C64.0776 69.7313 63.7569 69.493 63.4796 69.181C63.2109 68.869 63.0029 68.492 62.8556 68.05C62.7083 67.5993 62.6346 67.0837 62.6346 66.503C62.6346 65.7317 62.7559 65.0817 62.9986 64.553C63.2499 64.0157 63.6053 63.6083 64.0646 63.331C64.5239 63.045 65.0656 62.902 65.6896 62.902C66.2876 62.902 66.8119 63.045 67.2626 63.331C67.7219 63.6083 68.0816 64.0157 68.3416 64.553C68.6016 65.0817 68.7316 65.7317 68.7316 66.503ZM63.8046 66.503C63.8046 67.049 63.8696 67.5257 63.9996 67.933C64.1296 68.3317 64.3333 68.6393 64.6106 68.856C64.8879 69.0727 65.2433 69.181 65.6766 69.181C66.1099 69.181 66.4653 69.0727 66.7426 68.856C67.0199 68.6393 67.2236 68.3317 67.3536 67.933C67.4923 67.5257 67.5616 67.049 67.5616 66.503C67.5616 65.9483 67.4923 65.476 67.3536 65.086C67.2236 64.696 67.0199 64.397 66.7426 64.189C66.4653 63.9723 66.1056 63.864 65.6636 63.864C65.0136 63.864 64.5413 64.098 64.2466 64.566C63.9519 65.034 63.8046 65.6797 63.8046 66.503ZM73.1606 62.902C73.724 62.902 74.2093 63.032 74.6166 63.292C75.024 63.552 75.336 63.9203 75.5526 64.397C75.778 64.865 75.8906 65.4153 75.8906 66.048V66.737H71.4186C71.436 67.5257 71.6223 68.128 71.9776 68.544C72.333 68.9513 72.8313 69.155 73.4726 69.155C73.8886 69.155 74.257 69.116 74.5776 69.038C74.907 68.9513 75.245 68.83 75.5916 68.674V69.675C75.2536 69.831 74.92 69.9437 74.5906 70.013C74.27 70.091 73.88 70.13 73.4206 70.13C72.7966 70.13 72.2463 69.9957 71.7696 69.727C71.293 69.4583 70.9203 69.0597 70.6516 68.531C70.383 67.9937 70.2486 67.3393 70.2486 66.568C70.2486 65.8053 70.37 65.151 70.6126 64.605C70.8553 64.059 71.1933 63.6387 71.6266 63.344C72.0686 63.0493 72.58 62.902 73.1606 62.902ZM73.1606 63.838C72.658 63.838 72.2593 64.0157 71.9646 64.371C71.67 64.7177 71.4966 65.203 71.4446 65.827H74.7206C74.7206 65.4283 74.6643 65.0817 74.5516 64.787C74.439 64.4923 74.2656 64.2627 74.0316 64.098C73.8063 63.9247 73.516 63.838 73.1606 63.838ZM86.6824 63.032V70H85.5514V64.007H82.2364V70H81.1054V63.032H86.6824ZM94.681 66.503C94.681 67.0837 94.6073 67.5993 94.46 68.05C94.3213 68.492 94.1177 68.869 93.849 69.181C93.5803 69.493 93.2553 69.7313 92.874 69.896C92.4927 70.052 92.068 70.13 91.6 70.13C91.1667 70.13 90.7637 70.052 90.391 69.896C90.027 69.7313 89.7063 69.493 89.429 69.181C89.1603 68.869 88.9523 68.492 88.805 68.05C88.6577 67.5993 88.584 67.0837 88.584 66.503C88.584 65.7317 88.7053 65.0817 88.948 64.553C89.1993 64.0157 89.5547 63.6083 90.014 63.331C90.4733 63.045 91.015 62.902 91.639 62.902C92.237 62.902 92.7613 63.045 93.212 63.331C93.6713 63.6083 94.031 64.0157 94.291 64.553C94.551 65.0817 94.681 65.7317 94.681 66.503ZM89.754 66.503C89.754 67.049 89.819 67.5257 89.949 67.933C90.079 68.3317 90.2827 68.6393 90.56 68.856C90.8373 69.0727 91.1927 69.181 91.626 69.181C92.0593 69.181 92.4147 69.0727 92.692 68.856C92.9693 68.6393 93.173 68.3317 93.303 67.933C93.4417 67.5257 93.511 67.049 93.511 66.503C93.511 65.9483 93.4417 65.476 93.303 65.086C93.173 64.696 92.9693 64.397 92.692 64.189C92.4147 63.9723 92.055 63.864 91.613 63.864C90.963 63.864 90.4907 64.098 90.196 64.566C89.9013 65.034 89.754 65.6797 89.754 66.503ZM101.632 70H100.488V63.981H98.5771C98.4991 65.0817 98.3951 66.022 98.2651 66.802C98.1437 67.5733 97.9877 68.2017 97.7971 68.687C97.6151 69.1723 97.3941 69.5277 97.1341 69.753C96.8741 69.9783 96.5664 70.091 96.2111 70.091C96.0984 70.091 95.9857 70.0823 95.8731 70.065C95.7691 70.0563 95.6824 70.0347 95.6131 70V69.142C95.6651 69.1593 95.7214 69.1723 95.7821 69.181C95.8427 69.1897 95.9034 69.194 95.9641 69.194C96.1374 69.194 96.2934 69.116 96.4321 68.96C96.5794 68.804 96.7094 68.5657 96.8221 68.245C96.9434 67.9243 97.0517 67.5213 97.1471 67.036C97.2424 66.542 97.3247 65.9613 97.3941 65.294C97.4721 64.6267 97.5414 63.8727 97.6021 63.032H101.632V70ZM106.432 62.902C106.995 62.902 107.481 63.032 107.888 63.292C108.295 63.552 108.607 63.9203 108.824 64.397C109.049 64.865 109.162 65.4153 109.162 66.048V66.737H104.69C104.707 67.5257 104.894 68.128 105.249 68.544C105.604 68.9513 106.103 69.155 106.744 69.155C107.16 69.155 107.528 69.116 107.849 69.038C108.178 68.9513 108.516 68.83 108.863 68.674V69.675C108.525 69.831 108.191 69.9437 107.862 70.013C107.541 70.091 107.151 70.13 106.692 70.13C106.068 70.13 105.518 69.9957 105.041 69.727C104.564 69.4583 104.192 69.0597 103.923 68.531C103.654 67.9937 103.52 67.3393 103.52 66.568C103.52 65.8053 103.641 65.151 103.884 64.605C104.127 64.059 104.465 63.6387 104.898 63.344C105.34 63.0493 105.851 62.902 106.432 62.902ZM106.432 63.838C105.929 63.838 105.531 64.0157 105.236 64.371C104.941 64.7177 104.768 65.203 104.716 65.827H107.992C107.992 65.4283 107.936 65.0817 107.823 64.787C107.71 64.4923 107.537 64.2627 107.303 64.098C107.078 63.9247 106.787 63.838 106.432 63.838Z" fill="black"/>
</svg>

