<svg width="125" height="90" viewBox="0 0 125 90" fill="none" xmlns="http://www.w3.org/2000/svg">
<rect x="0.5" width="124" height="90" rx="8" fill="#F0F0F0"/>
<rect x="50" y="25" width="25" height="15" rx="7.5" stroke="#5F5F5F" stroke-width="2"/>
<circle cx="67.5" cy="32.5" r="3.5" fill="#5F5F5F"/>
<path d="M14.6598 70V60.718H21.2378V70H20.0938V61.745H15.8168V70H14.6598ZM26.2146 62.902C26.778 62.902 27.2633 63.032 27.6706 63.292C28.078 63.552 28.39 63.9203 28.6066 64.397C28.832 64.865 28.9446 65.4153 28.9446 66.048V66.737H24.4726C24.49 67.5257 24.6763 68.128 25.0316 68.544C25.387 68.9513 25.8853 69.155 26.5266 69.155C26.9426 69.155 27.311 69.116 27.6316 69.038C27.961 68.9513 28.299 68.83 28.6456 68.674V69.675C28.3076 69.831 27.974 69.9437 27.6446 70.013C27.324 70.091 26.934 70.13 26.4746 70.13C25.8506 70.13 25.3003 69.9957 24.8236 69.727C24.347 69.4583 23.9743 69.0597 23.7056 68.531C23.437 67.9937 23.3026 67.3393 23.3026 66.568C23.3026 65.8053 23.424 65.151 23.6666 64.605C23.9093 64.059 24.2473 63.6387 24.6806 63.344C25.1226 63.0493 25.634 62.902 26.2146 62.902ZM26.2146 63.838C25.712 63.838 25.3133 64.0157 25.0186 64.371C24.724 64.7177 24.5506 65.203 24.4986 65.827H27.7746C27.7746 65.4283 27.7183 65.0817 27.6056 64.787C27.493 64.4923 27.3196 64.2627 27.0856 64.098C26.8603 63.9247 26.57 63.838 26.2146 63.838ZM33.9446 62.902C34.7506 62.902 35.3963 63.201 35.8816 63.799C36.3756 64.397 36.6226 65.2983 36.6226 66.503C36.6226 67.2917 36.5099 67.959 36.2846 68.505C36.0593 69.0423 35.7429 69.4497 35.3356 69.727C34.9369 69.9957 34.4689 70.13 33.9316 70.13C33.5936 70.13 33.2946 70.0823 33.0346 69.987C32.7833 69.8917 32.5666 69.7703 32.3846 69.623C32.2026 69.467 32.0466 69.298 31.9166 69.116H31.8386C31.8559 69.2633 31.8733 69.4497 31.8906 69.675C31.9079 69.9003 31.9166 70.0953 31.9166 70.26V73.12H30.7856V63.032H31.7086L31.8646 63.981H31.9166C32.0466 63.7817 32.2026 63.5997 32.3846 63.435C32.5666 63.2703 32.7833 63.1403 33.0346 63.045C33.2946 62.9497 33.5979 62.902 33.9446 62.902ZM33.7236 63.864C33.2903 63.864 32.9393 63.955 32.6706 64.137C32.4106 64.3103 32.2199 64.5747 32.0986 64.93C31.9773 65.2853 31.9166 65.736 31.9166 66.282V66.503C31.9166 67.075 31.9686 67.5603 32.0726 67.959C32.1853 68.3577 32.3759 68.661 32.6446 68.869C32.9133 69.077 33.2816 69.181 33.7496 69.181C34.1396 69.181 34.4603 69.064 34.7116 68.83C34.9629 68.596 35.1493 68.2797 35.2706 67.881C35.3919 67.4737 35.4526 67.01 35.4526 66.49C35.4526 65.6927 35.3096 65.0557 35.0236 64.579C34.7463 64.1023 34.3129 63.864 33.7236 63.864ZM41.0619 62.902C41.6252 62.902 42.1106 63.032 42.5179 63.292C42.9252 63.552 43.2372 63.9203 43.4539 64.397C43.6792 64.865 43.7919 65.4153 43.7919 66.048V66.737H39.3199C39.3372 67.5257 39.5236 68.128 39.8789 68.544C40.2342 68.9513 40.7326 69.155 41.3739 69.155C41.7899 69.155 42.1582 69.116 42.4789 69.038C42.8082 68.9513 43.1462 68.83 43.4929 68.674V69.675C43.1549 69.831 42.8212 69.9437 42.4919 70.013C42.1712 70.091 41.7812 70.13 41.3219 70.13C40.6979 70.13 40.1476 69.9957 39.6709 69.727C39.1942 69.4583 38.8216 69.0597 38.5529 68.531C38.2842 67.9937 38.1499 67.3393 38.1499 66.568C38.1499 65.8053 38.2712 65.151 38.5139 64.605C38.7566 64.059 39.0946 63.6387 39.5279 63.344C39.9699 63.0493 40.4812 62.902 41.0619 62.902ZM41.0619 63.838C40.5592 63.838 40.1606 64.0157 39.8659 64.371C39.5712 64.7177 39.3979 65.203 39.3459 65.827H42.6219C42.6219 65.4283 42.5656 65.0817 42.4529 64.787C42.3402 64.4923 42.1669 64.2627 41.9329 64.098C41.7076 63.9247 41.4172 63.838 41.0619 63.838ZM49.5459 63.032H50.7809L47.9989 66.386L51.0149 70H49.7019L46.7639 66.464V70H45.6329V63.032H46.7639V66.412L49.5459 63.032ZM57.4409 70H56.2969V63.981H54.3859C54.3079 65.0817 54.2039 66.022 54.0739 66.802C53.9526 67.5733 53.7966 68.2017 53.6059 68.687C53.4239 69.1723 53.2029 69.5277 52.9429 69.753C52.6829 69.9783 52.3753 70.091 52.0199 70.091C51.9073 70.091 51.7946 70.0823 51.6819 70.065C51.5779 70.0563 51.4913 70.0347 51.4219 70V69.142C51.4739 69.1593 51.5303 69.1723 51.5909 69.181C51.6516 69.1897 51.7123 69.194 51.7729 69.194C51.9463 69.194 52.1023 69.116 52.2409 68.96C52.3883 68.804 52.5183 68.5657 52.6309 68.245C52.7523 67.9243 52.8606 67.5213 52.9559 67.036C53.0513 66.542 53.1336 65.9613 53.2029 65.294C53.2809 64.6267 53.3503 63.8727 53.4109 63.032H57.4409V70ZM68.247 66.503C68.247 67.2743 68.13 67.933 67.896 68.479C67.662 69.0163 67.324 69.428 66.882 69.714C66.4487 69.9913 65.933 70.13 65.335 70.13C64.789 70.13 64.3037 70.0087 63.879 69.766C63.463 69.5147 63.1293 69.1507 62.878 68.674C62.6353 68.1887 62.4923 67.595 62.449 66.893H60.824V70H59.693V63.032H60.824V65.931H62.462C62.5227 65.2723 62.6743 64.722 62.917 64.28C63.1683 63.8293 63.502 63.487 63.918 63.253C64.334 63.019 64.815 62.902 65.361 62.902C65.933 62.902 66.4357 63.045 66.869 63.331C67.3023 63.6083 67.6403 64.0157 67.883 64.553C68.1257 65.0817 68.247 65.7317 68.247 66.503ZM63.606 66.503C63.606 67.0837 63.6667 67.5733 63.788 67.972C63.9093 68.3707 64.1 68.674 64.36 68.882C64.62 69.0813 64.9493 69.181 65.348 69.181C65.7553 69.181 66.0847 69.0813 66.336 68.882C66.596 68.674 66.7823 68.3707 66.895 67.972C67.0163 67.5733 67.077 67.0837 67.077 66.503C67.077 65.9223 67.0163 65.437 66.895 65.047C66.7737 64.657 66.5873 64.3623 66.336 64.163C66.0847 63.9637 65.7553 63.864 65.348 63.864C64.9493 63.864 64.62 63.9637 64.36 64.163C64.1 64.3623 63.9093 64.657 63.788 65.047C63.6667 65.437 63.606 65.9223 63.606 66.503ZM71.0249 65.567C71.0249 65.9743 71.1289 66.2777 71.3369 66.477C71.5449 66.6677 71.8482 66.763 72.2469 66.763C72.6542 66.763 73.0225 66.698 73.3519 66.568C73.6812 66.4293 74.0192 66.2473 74.3659 66.022V63.032H75.4969V70H74.3659V66.893C74.0105 67.1443 73.6509 67.3437 73.2869 67.491C72.9315 67.6297 72.5112 67.699 72.0259 67.699C71.3499 67.699 70.8255 67.5127 70.4529 67.14C70.0802 66.7673 69.8939 66.269 69.8939 65.645V63.032H71.0249V65.567ZM80.2612 62.915C81.0585 62.915 81.6522 63.1013 82.0422 63.474C82.4409 63.8467 82.6402 64.4403 82.6402 65.255V70H81.8212L81.6002 69.012H81.5482C81.3575 69.2633 81.1625 69.4757 80.9632 69.649C80.7725 69.8137 80.5472 69.935 80.2872 70.013C80.0359 70.091 79.7239 70.13 79.3512 70.13C78.9612 70.13 78.6102 70.0563 78.2982 69.909C77.9862 69.7617 77.7392 69.5363 77.5572 69.233C77.3752 68.921 77.2842 68.531 77.2842 68.063C77.2842 67.3697 77.5399 66.8367 78.0512 66.464C78.5625 66.0827 79.3512 65.8747 80.4172 65.84L81.5222 65.801V65.385C81.5222 64.8043 81.4052 64.4013 81.1712 64.176C80.9459 63.9507 80.6209 63.838 80.1962 63.838C79.8582 63.838 79.5332 63.8943 79.2212 64.007C78.9179 64.111 78.6275 64.2323 78.3502 64.371L77.9992 63.513C78.2939 63.3483 78.6362 63.2097 79.0262 63.097C79.4162 62.9757 79.8279 62.915 80.2612 62.915ZM80.5732 66.633C79.7759 66.6677 79.2212 66.8063 78.9092 67.049C78.6059 67.2917 78.4542 67.634 78.4542 68.076C78.4542 68.466 78.5625 68.752 78.7792 68.934C78.9959 69.116 79.2775 69.207 79.6242 69.207C80.1615 69.207 80.6122 69.0467 80.9762 68.726C81.3402 68.3967 81.5222 67.894 81.5222 67.218V66.594L80.5732 66.633ZM89.4605 63.994H87.3155V70H86.1975V63.994H84.0785V63.032H89.4605V63.994ZM93.3828 62.902C93.9461 62.902 94.4315 63.032 94.8388 63.292C95.2461 63.552 95.5581 63.9203 95.7748 64.397C96.0001 64.865 96.1128 65.4153 96.1128 66.048V66.737H91.6408C91.6581 67.5257 91.8445 68.128 92.1998 68.544C92.5551 68.9513 93.0535 69.155 93.6948 69.155C94.1108 69.155 94.4791 69.116 94.7998 69.038C95.1291 68.9513 95.4671 68.83 95.8138 68.674V69.675C95.4758 69.831 95.1421 69.9437 94.8128 70.013C94.4921 70.091 94.1021 70.13 93.6428 70.13C93.0188 70.13 92.4685 69.9957 91.9918 69.727C91.5151 69.4583 91.1425 69.0597 90.8738 68.531C90.6051 67.9937 90.4708 67.3393 90.4708 66.568C90.4708 65.8053 90.5921 65.151 90.8348 64.605C91.0775 64.059 91.4155 63.6387 91.8488 63.344C92.2908 63.0493 92.8021 62.902 93.3828 62.902ZM93.3828 63.838C92.8801 63.838 92.4815 64.0157 92.1868 64.371C91.8921 64.7177 91.7188 65.203 91.6668 65.827H94.9428C94.9428 65.4283 94.8865 65.0817 94.7738 64.787C94.6611 64.4923 94.4878 64.2627 94.2538 64.098C94.0285 63.9247 93.7381 63.838 93.3828 63.838ZM103.024 70H101.88V63.981H99.9688C99.8908 65.0817 99.7868 66.022 99.6568 66.802C99.5354 67.5733 99.3794 68.2017 99.1888 68.687C99.0068 69.1723 98.7858 69.5277 98.5258 69.753C98.2658 69.9783 97.9581 70.091 97.6028 70.091C97.4901 70.091 97.3774 70.0823 97.2648 70.065C97.1608 70.0563 97.0741 70.0347 97.0048 70V69.142C97.0568 69.1593 97.1131 69.1723 97.1738 69.181C97.2344 69.1897 97.2951 69.194 97.3558 69.194C97.5291 69.194 97.6851 69.116 97.8238 68.96C97.9711 68.804 98.1011 68.5657 98.2138 68.245C98.3351 67.9243 98.4434 67.5213 98.5388 67.036C98.6341 66.542 98.7164 65.9613 98.7858 65.294C98.8638 64.6267 98.9331 63.8727 98.9938 63.032H103.024V70ZM108.305 65.892C108.877 65.892 109.353 65.9657 109.735 66.113C110.116 66.2603 110.402 66.4813 110.593 66.776C110.792 67.062 110.892 67.426 110.892 67.868C110.892 68.3013 110.801 68.6783 110.619 68.999C110.437 69.3197 110.151 69.5667 109.761 69.74C109.379 69.9133 108.881 70 108.266 70H105.276V63.032H106.407V65.892H108.305ZM109.761 67.933C109.761 67.5083 109.622 67.2223 109.345 67.075C109.067 66.919 108.682 66.841 108.188 66.841H106.407V69.077H108.214C108.656 69.077 109.024 68.9903 109.319 68.817C109.613 68.6437 109.761 68.349 109.761 67.933Z" fill="black"/>
</svg>
