<svg width="125" height="90" viewBox="0 0 125 90" fill="none" xmlns="http://www.w3.org/2000/svg">
<rect x="0.5" width="124" height="90" rx="8" fill="#F0F0F0"/>
<path d="M68 37H57M68 33H57M53.5 29H71.5M58.3 23H66.7C68.3802 23 69.2202 23 69.862 23.327C70.4265 23.6146 70.8854 24.0735 71.173 24.638C71.5 25.2798 71.5 26.1198 71.5 27.8V36.2C71.5 37.8802 71.5 38.7202 71.173 39.362C70.8854 39.9265 70.4265 40.3854 69.862 40.673C69.2202 41 68.3802 41 66.7 41H58.3C56.6198 41 55.7798 41 55.138 40.673C54.5735 40.3854 54.1146 39.9265 53.827 39.362C53.5 38.7202 53.5 37.8802 53.5 36.2V27.8C53.5 26.1198 53.5 25.2798 53.827 24.638C54.1146 24.0735 54.5735 23.6146 55.138 23.327C55.7798 23 56.6198 23 58.3 23Z" stroke="#5F5F5F" stroke-width="2" stroke-linecap="round" stroke-linejoin="round"/>
<path d="M67 26L68 26" stroke="#5F5F5F" stroke-width="2" stroke-linecap="round" stroke-linejoin="round"/>
<path d="M34.642 70H33.264L29.377 65.294V70H28.22V60.718H29.377V65.216L33.173 60.718H34.473L30.729 65.229L34.642 70ZM41.6015 66.503C41.6015 67.0837 41.5278 67.5993 41.3805 68.05C41.2418 68.492 41.0382 68.869 40.7695 69.181C40.5008 69.493 40.1758 69.7313 39.7945 69.896C39.4132 70.052 38.9885 70.13 38.5205 70.13C38.0872 70.13 37.6842 70.052 37.3115 69.896C36.9475 69.7313 36.6268 69.493 36.3495 69.181C36.0808 68.869 35.8728 68.492 35.7255 68.05C35.5782 67.5993 35.5045 67.0837 35.5045 66.503C35.5045 65.7317 35.6258 65.0817 35.8685 64.553C36.1198 64.0157 36.4752 63.6083 36.9345 63.331C37.3938 63.045 37.9355 62.902 38.5595 62.902C39.1575 62.902 39.6818 63.045 40.1325 63.331C40.5918 63.6083 40.9515 64.0157 41.2115 64.553C41.4715 65.0817 41.6015 65.7317 41.6015 66.503ZM36.6745 66.503C36.6745 67.049 36.7395 67.5257 36.8695 67.933C36.9995 68.3317 37.2032 68.6393 37.4805 68.856C37.7578 69.0727 38.1132 69.181 38.5465 69.181C38.9798 69.181 39.3352 69.0727 39.6125 68.856C39.8898 68.6393 40.0935 68.3317 40.2235 67.933C40.3622 67.5257 40.4315 67.049 40.4315 66.503C40.4315 65.9483 40.3622 65.476 40.2235 65.086C40.0935 64.696 39.8898 64.397 39.6125 64.189C39.3352 63.9723 38.9755 63.864 38.5335 63.864C37.8835 63.864 37.4112 64.098 37.1165 64.566C36.8218 65.034 36.6745 65.6797 36.6745 66.503ZM50.6196 63.032V70H49.5926V65.554C49.5926 65.372 49.5969 65.1813 49.6056 64.982C49.6229 64.7827 49.6402 64.5877 49.6576 64.397H49.6186L47.4996 70H46.5636L44.4966 64.397H44.4576C44.4749 64.5877 44.4879 64.7827 44.4966 64.982C44.5052 65.1813 44.5096 65.385 44.5096 65.593V70H43.4826V63.032H45.0036L47.0316 68.635L49.0986 63.032H50.6196ZM52.5487 65.814C52.5487 64.8 52.644 63.9377 52.8347 63.227C53.034 62.5077 53.3373 61.9357 53.7447 61.511C54.1607 61.0777 54.6937 60.7873 55.3437 60.64C55.8637 60.5187 56.375 60.4103 56.8777 60.315C57.3803 60.2197 57.8527 60.133 58.2947 60.055L58.4897 61.056C58.273 61.0907 58.0347 61.134 57.7747 61.186C57.5147 61.2293 57.2503 61.277 56.9817 61.329C56.7217 61.3723 56.466 61.42 56.2147 61.472C55.972 61.5153 55.7553 61.5587 55.5647 61.602C55.296 61.6627 55.0533 61.7667 54.8367 61.914C54.6287 62.0527 54.4467 62.2433 54.2907 62.486C54.1433 62.7287 54.022 63.0277 53.9267 63.383C53.84 63.7383 53.788 64.1587 53.7707 64.644H53.8487C53.9613 64.4793 54.1173 64.3103 54.3167 64.137C54.516 63.9637 54.7543 63.8163 55.0317 63.695C55.309 63.5737 55.6253 63.513 55.9807 63.513C56.544 63.513 57.0163 63.6473 57.3977 63.916C57.779 64.176 58.065 64.54 58.2557 65.008C58.455 65.476 58.5547 66.022 58.5547 66.646C58.5547 67.4173 58.4247 68.063 58.1647 68.583C57.9133 69.103 57.5623 69.493 57.1117 69.753C56.661 70.0043 56.1367 70.13 55.5387 70.13C55.088 70.13 54.6763 70.039 54.3037 69.857C53.9397 69.6663 53.6233 69.389 53.3547 69.025C53.0947 68.661 52.8953 68.2103 52.7567 67.673C52.618 67.1357 52.5487 66.516 52.5487 65.814ZM55.6297 69.181C55.9763 69.181 56.2797 69.103 56.5397 68.947C56.7997 68.791 56.999 68.5353 57.1377 68.18C57.285 67.8247 57.3587 67.3523 57.3587 66.763C57.3587 66.0523 57.2373 65.4933 56.9947 65.086C56.752 64.67 56.3533 64.462 55.7987 64.462C55.4433 64.462 55.1227 64.5487 54.8367 64.722C54.5507 64.8867 54.308 65.0773 54.1087 65.294C53.918 65.5107 53.7837 65.6927 53.7057 65.84C53.7057 66.2647 53.7317 66.6763 53.7837 67.075C53.8443 67.4737 53.944 67.8333 54.0827 68.154C54.23 68.466 54.425 68.7173 54.6677 68.908C54.919 69.09 55.2397 69.181 55.6297 69.181ZM66.1703 66.503C66.1703 67.0837 66.0966 67.5993 65.9493 68.05C65.8106 68.492 65.6069 68.869 65.3383 69.181C65.0696 69.493 64.7446 69.7313 64.3633 69.896C63.9819 70.052 63.5573 70.13 63.0893 70.13C62.6559 70.13 62.2529 70.052 61.8803 69.896C61.5163 69.7313 61.1956 69.493 60.9183 69.181C60.6496 68.869 60.4416 68.492 60.2943 68.05C60.1469 67.5993 60.0733 67.0837 60.0733 66.503C60.0733 65.7317 60.1946 65.0817 60.4373 64.553C60.6886 64.0157 61.0439 63.6083 61.5033 63.331C61.9626 63.045 62.5043 62.902 63.1283 62.902C63.7263 62.902 64.2506 63.045 64.7013 63.331C65.1606 63.6083 65.5203 64.0157 65.7803 64.553C66.0403 65.0817 66.1703 65.7317 66.1703 66.503ZM61.2433 66.503C61.2433 67.049 61.3083 67.5257 61.4383 67.933C61.5683 68.3317 61.7719 68.6393 62.0493 68.856C62.3266 69.0727 62.6819 69.181 63.1153 69.181C63.5486 69.181 63.9039 69.0727 64.1813 68.856C64.4586 68.6393 64.6623 68.3317 64.7923 67.933C64.9309 67.5257 65.0003 67.049 65.0003 66.503C65.0003 65.9483 64.9309 65.476 64.7923 65.086C64.6623 64.696 64.4586 64.397 64.1813 64.189C63.9039 63.9723 63.5443 63.864 63.1023 63.864C62.4523 63.864 61.9799 64.098 61.6853 64.566C61.3906 65.034 61.2433 65.6797 61.2433 66.503ZM71.0871 65.814C71.0871 64.8 71.1825 63.9377 71.3731 63.227C71.5725 62.5077 71.8758 61.9357 72.2831 61.511C72.6991 61.0777 73.2321 60.7873 73.8821 60.64C74.4021 60.5187 74.9135 60.4103 75.4161 60.315C75.9188 60.2197 76.3911 60.133 76.8331 60.055L77.0281 61.056C76.8115 61.0907 76.5731 61.134 76.3131 61.186C76.0531 61.2293 75.7888 61.277 75.5201 61.329C75.2601 61.3723 75.0045 61.42 74.7531 61.472C74.5105 61.5153 74.2938 61.5587 74.1031 61.602C73.8345 61.6627 73.5918 61.7667 73.3751 61.914C73.1671 62.0527 72.9851 62.2433 72.8291 62.486C72.6818 62.7287 72.5605 63.0277 72.4651 63.383C72.3785 63.7383 72.3265 64.1587 72.3091 64.644H72.3871C72.4998 64.4793 72.6558 64.3103 72.8551 64.137C73.0545 63.9637 73.2928 63.8163 73.5701 63.695C73.8475 63.5737 74.1638 63.513 74.5191 63.513C75.0825 63.513 75.5548 63.6473 75.9361 63.916C76.3175 64.176 76.6035 64.54 76.7941 65.008C76.9935 65.476 77.0931 66.022 77.0931 66.646C77.0931 67.4173 76.9631 68.063 76.7031 68.583C76.4518 69.103 76.1008 69.493 75.6501 69.753C75.1995 70.0043 74.6751 70.13 74.0771 70.13C73.6265 70.13 73.2148 70.039 72.8421 69.857C72.4781 69.6663 72.1618 69.389 71.8931 69.025C71.6331 68.661 71.4338 68.2103 71.2951 67.673C71.1565 67.1357 71.0871 66.516 71.0871 65.814ZM74.1681 69.181C74.5148 69.181 74.8181 69.103 75.0781 68.947C75.3381 68.791 75.5375 68.5353 75.6761 68.18C75.8235 67.8247 75.8971 67.3523 75.8971 66.763C75.8971 66.0523 75.7758 65.4933 75.5331 65.086C75.2905 64.67 74.8918 64.462 74.3371 64.462C73.9818 64.462 73.6611 64.5487 73.3751 64.722C73.0891 64.8867 72.8465 65.0773 72.6471 65.294C72.4565 65.5107 72.3221 65.6927 72.2441 65.84C72.2441 66.2647 72.2701 66.6763 72.3221 67.075C72.3828 67.4737 72.4825 67.8333 72.6211 68.154C72.7685 68.466 72.9635 68.7173 73.2061 68.908C73.4575 69.09 73.7781 69.181 74.1681 69.181ZM84.7087 66.503C84.7087 67.0837 84.6351 67.5993 84.4877 68.05C84.3491 68.492 84.1454 68.869 83.8767 69.181C83.6081 69.493 83.2831 69.7313 82.9017 69.896C82.5204 70.052 82.0957 70.13 81.6277 70.13C81.1944 70.13 80.7914 70.052 80.4187 69.896C80.0547 69.7313 79.7341 69.493 79.4567 69.181C79.1881 68.869 78.9801 68.492 78.8327 68.05C78.6854 67.5993 78.6117 67.0837 78.6117 66.503C78.6117 65.7317 78.7331 65.0817 78.9757 64.553C79.2271 64.0157 79.5824 63.6083 80.0417 63.331C80.5011 63.045 81.0427 62.902 81.6667 62.902C82.2647 62.902 82.7891 63.045 83.2397 63.331C83.6991 63.6083 84.0587 64.0157 84.3187 64.553C84.5787 65.0817 84.7087 65.7317 84.7087 66.503ZM79.7817 66.503C79.7817 67.049 79.8467 67.5257 79.9767 67.933C80.1067 68.3317 80.3104 68.6393 80.5877 68.856C80.8651 69.0727 81.2204 69.181 81.6537 69.181C82.0871 69.181 82.4424 69.0727 82.7197 68.856C82.9971 68.6393 83.2007 68.3317 83.3307 67.933C83.4694 67.5257 83.5387 67.049 83.5387 66.503C83.5387 65.9483 83.4694 65.476 83.3307 65.086C83.2007 64.696 82.9971 64.397 82.7197 64.189C82.4424 63.9723 82.0827 63.864 81.6407 63.864C80.9907 63.864 80.5184 64.098 80.2237 64.566C79.9291 65.034 79.7817 65.6797 79.7817 66.503ZM90.5028 63.032H91.7378L88.9558 66.386L91.9718 70H90.6588L87.7208 66.464V70H86.5898V63.032H87.7208V66.412L90.5028 63.032ZM95.7257 70.13C95.1363 70.13 94.6163 70.0043 94.1657 69.753C93.715 69.5017 93.3597 69.1117 93.0997 68.583C92.8483 68.0543 92.7227 67.3783 92.7227 66.555C92.7227 65.697 92.857 64.9993 93.1257 64.462C93.3943 63.9247 93.7583 63.5303 94.2177 63.279C94.6857 63.0277 95.2143 62.902 95.8037 62.902C96.1417 62.902 96.4667 62.941 96.7787 63.019C97.0993 63.0883 97.3593 63.175 97.5587 63.279L97.2077 64.228C97.0083 64.15 96.7743 64.0763 96.5057 64.007C96.2457 63.9377 96.003 63.903 95.7777 63.903C95.353 63.903 95.002 64.0027 94.7247 64.202C94.4473 64.4013 94.2393 64.696 94.1007 65.086C93.962 65.476 93.8927 65.9613 93.8927 66.542C93.8927 67.0967 93.962 67.569 94.1007 67.959C94.2393 68.349 94.443 68.6437 94.7117 68.843C94.989 69.0423 95.327 69.142 95.7257 69.142C96.081 69.142 96.3973 69.103 96.6747 69.025C96.952 68.947 97.2077 68.8517 97.4417 68.739V69.753C97.2163 69.8743 96.9693 69.9653 96.7007 70.026C96.432 70.0953 96.107 70.13 95.7257 70.13Z" fill="black"/>
</svg>
