<svg width="133" height="56" viewBox="0 0 133 56" fill="none" xmlns="http://www.w3.org/2000/svg">
<rect width="133" height="56" fill="white"/>
<path d="M41.2 20C42.8802 20 43.7202 20 44.362 20.327C44.9265 20.6146 45.3854 21.0735 45.673 21.638C46 22.2798 46 23.1198 46 24.8L46 31.2C46 32.8802 46 33.7202 45.673 34.362C45.3854 34.9265 44.9265 35.3854 44.362 35.673C43.7202 36 42.8802 36 41.2 36L30.8 36C29.1198 36 28.2798 36 27.638 35.673C27.0735 35.3854 26.6146 34.9265 26.327 34.362C26 33.7202 26 32.8802 26 31.2L26 24.8C26 23.1198 26 22.2798 26.327 21.638C26.6146 21.0735 27.0735 20.6146 27.638 20.327C28.2798 20 29.1198 20 30.8 20L41.2 20Z" stroke="#393939" stroke-width="1.5" stroke-linecap="round" stroke-linejoin="round"/>
<path d="M63.4105 22.576V32.72H64.8665V37.008H63.4905V34H55.6345V37.008H54.2585V32.72H55.1385C55.5225 32.0587 55.8852 31.3173 56.2265 30.496C56.5785 29.6747 56.8878 28.816 57.1545 27.92C57.4212 27.0133 57.6398 26.1067 57.8105 25.2C57.9812 24.2933 58.0878 23.4187 58.1305 22.576H63.4105ZM59.3945 23.872C59.3518 24.4907 59.2452 25.1893 59.0745 25.968C58.9145 26.7467 58.7065 27.5467 58.4505 28.368C58.2052 29.1787 57.9278 29.9627 57.6185 30.72C57.3198 31.4773 56.9998 32.144 56.6585 32.72H61.9865V23.872H59.3945ZM74.241 29.696C74.241 30.4107 74.145 31.0453 73.953 31.6C73.7717 32.144 73.505 32.608 73.153 32.992C72.8117 33.376 72.3903 33.6693 71.889 33.872C71.3983 34.064 70.849 34.16 70.241 34.16C69.6757 34.16 69.153 34.064 68.673 33.872C68.193 33.6693 67.777 33.376 67.425 32.992C67.073 32.608 66.7957 32.144 66.593 31.6C66.401 31.0453 66.305 30.4107 66.305 29.696C66.305 28.7467 66.465 27.9467 66.785 27.296C67.105 26.6347 67.5637 26.1333 68.161 25.792C68.7583 25.44 69.4677 25.264 70.289 25.264C71.0677 25.264 71.7503 25.44 72.337 25.792C72.9343 26.1333 73.3983 26.6347 73.729 27.296C74.0703 27.9467 74.241 28.7467 74.241 29.696ZM67.761 29.696C67.761 30.368 67.8463 30.9547 68.017 31.456C68.1983 31.9467 68.4757 32.3253 68.849 32.592C69.2223 32.8587 69.697 32.992 70.273 32.992C70.849 32.992 71.3237 32.8587 71.697 32.592C72.0703 32.3253 72.3423 31.9467 72.513 31.456C72.6943 30.9547 72.785 30.368 72.785 29.696C72.785 29.0133 72.6943 28.432 72.513 27.952C72.3317 27.472 72.0543 27.104 71.681 26.848C71.3183 26.5813 70.8437 26.448 70.257 26.448C69.3823 26.448 68.7477 26.736 68.353 27.312C67.9583 27.888 67.761 28.6827 67.761 29.696ZM80.1125 34.16C79.3552 34.16 78.6778 34.0053 78.0805 33.696C77.4938 33.3867 77.0298 32.9067 76.6885 32.256C76.3578 31.6053 76.1925 30.7733 76.1925 29.76C76.1925 28.704 76.3685 27.8453 76.7205 27.184C77.0725 26.5227 77.5472 26.0373 78.1445 25.728C78.7525 25.4187 79.4405 25.264 80.2085 25.264C80.6458 25.264 81.0672 25.312 81.4725 25.408C81.8778 25.4933 82.2085 25.6 82.4645 25.728L82.0325 26.896C81.7765 26.8 81.4778 26.7093 81.1365 26.624C80.7952 26.5387 80.4752 26.496 80.1765 26.496C79.6005 26.496 79.1258 26.6187 78.7525 26.864C78.3792 27.1093 78.1018 27.472 77.9205 27.952C77.7392 28.432 77.6485 29.0293 77.6485 29.744C77.6485 30.4267 77.7392 31.008 77.9205 31.488C78.1018 31.968 78.3738 32.3307 78.7365 32.576C79.0992 32.8213 79.5525 32.944 80.0965 32.944C80.5658 32.944 80.9765 32.896 81.3285 32.8C81.6912 32.704 82.0218 32.5867 82.3205 32.448V33.696C82.0325 33.8453 81.7125 33.9573 81.3605 34.032C81.0192 34.1173 80.6032 34.16 80.1125 34.16ZM89.632 25.424H91.168L87.504 29.552L91.472 34H89.84L85.968 29.648V34H84.56V25.424H85.968V29.584L89.632 25.424ZM96.4768 25.28C97.5221 25.28 98.2954 25.5093 98.7968 25.968C99.2981 26.4267 99.5488 27.1573 99.5488 28.16V34H98.5248L98.2528 32.784H98.1888C97.9434 33.0933 97.6874 33.3547 97.4208 33.568C97.1648 33.7707 96.8661 33.92 96.5248 34.016C96.1941 34.112 95.7888 34.16 95.3088 34.16C94.7968 34.16 94.3328 34.0693 93.9168 33.888C93.5114 33.7067 93.1914 33.4293 92.9568 33.056C92.7221 32.672 92.6048 32.192 92.6048 31.616C92.6048 30.7627 92.9408 30.1067 93.6128 29.648C94.2848 29.1787 95.3194 28.9227 96.7168 28.88L98.1728 28.832V28.32C98.1728 27.6053 98.0181 27.1093 97.7088 26.832C97.3994 26.5547 96.9621 26.416 96.3968 26.416C95.9488 26.416 95.5221 26.4853 95.1168 26.624C94.7114 26.752 94.3328 26.9013 93.9808 27.072L93.5488 26.016C93.9221 25.8133 94.3648 25.6427 94.8768 25.504C95.3888 25.3547 95.9221 25.28 96.4768 25.28ZM96.8928 29.856C95.8261 29.8987 95.0848 30.0693 94.6688 30.368C94.2634 30.6667 94.0608 31.088 94.0608 31.632C94.0608 32.112 94.2048 32.464 94.4928 32.688C94.7914 32.912 95.1701 33.024 95.6288 33.024C96.3541 33.024 96.9568 32.8267 97.4368 32.432C97.9168 32.0267 98.1568 31.408 98.1568 30.576V29.808L96.8928 29.856Z" fill="black"/>
</svg>
