<svg width="125" height="90" viewBox="0 0 125 90" fill="none" xmlns="http://www.w3.org/2000/svg">
<rect x="0.5" width="124" height="90" rx="8" fill="#F0F0F0"/>
<path d="M63.2076 38.3639L61.7933 39.7781C59.8407 41.7308 56.6749 41.7308 54.7223 39.7781C52.7697 37.8255 52.7697 34.6597 54.7223 32.7071L56.1365 31.2929M68.8644 32.7071L70.2786 31.2929C72.2312 29.3402 72.2312 26.1744 70.2786 24.2218C68.326 22.2692 65.1602 22.2692 63.2076 24.2218L61.7933 25.636M59.0005 35.4999L66.0005 28.4999" stroke="#5F5F5F" stroke-width="2" stroke-linecap="round" stroke-linejoin="round"/>
<path d="M45.0336 61.615C44.5743 61.615 44.1626 61.7017 43.7986 61.875C43.4346 62.0397 43.1226 62.2867 42.8626 62.616C42.6113 62.9367 42.4163 63.331 42.2776 63.799C42.1476 64.2583 42.0826 64.7783 42.0826 65.359C42.0826 66.1217 42.191 66.7847 42.4076 67.348C42.6243 67.9113 42.9493 68.3447 43.3826 68.648C43.8246 68.9513 44.3706 69.103 45.0206 69.103C45.402 69.103 45.7616 69.0683 46.0996 68.999C46.4463 68.9297 46.7886 68.843 47.1266 68.739V69.753C46.7973 69.883 46.4593 69.9783 46.1126 70.039C45.766 70.0997 45.35 70.13 44.8646 70.13C43.972 70.13 43.2266 69.935 42.6286 69.545C42.0393 69.155 41.5973 68.6003 41.3026 67.881C41.008 67.1617 40.8606 66.3167 40.8606 65.346C40.8606 64.644 40.9516 64.0027 41.1336 63.422C41.3156 62.8413 41.5843 62.3387 41.9396 61.914C42.295 61.4893 42.7326 61.1643 43.2526 60.939C43.7726 60.705 44.3706 60.588 45.0466 60.588C45.4886 60.588 45.9176 60.6357 46.3336 60.731C46.7496 60.8263 47.1266 60.9607 47.4646 61.134L47.0096 62.122C46.741 61.992 46.4376 61.875 46.0996 61.771C45.7703 61.667 45.415 61.615 45.0336 61.615ZM51.7044 70.13C51.115 70.13 50.595 70.0043 50.1444 69.753C49.6937 69.5017 49.3384 69.1117 49.0784 68.583C48.827 68.0543 48.7014 67.3783 48.7014 66.555C48.7014 65.697 48.8357 64.9993 49.1044 64.462C49.373 63.9247 49.737 63.5303 50.1964 63.279C50.6644 63.0277 51.193 62.902 51.7824 62.902C52.1204 62.902 52.4454 62.941 52.7574 63.019C53.078 63.0883 53.338 63.175 53.5374 63.279L53.1864 64.228C52.987 64.15 52.753 64.0763 52.4844 64.007C52.2244 63.9377 51.9817 63.903 51.7564 63.903C51.3317 63.903 50.9807 64.0027 50.7034 64.202C50.426 64.4013 50.218 64.696 50.0794 65.086C49.9407 65.476 49.8714 65.9613 49.8714 66.542C49.8714 67.0967 49.9407 67.569 50.0794 67.959C50.218 68.349 50.4217 68.6437 50.6904 68.843C50.9677 69.0423 51.3057 69.142 51.7044 69.142C52.0597 69.142 52.376 69.103 52.6534 69.025C52.9307 68.947 53.1864 68.8517 53.4204 68.739V69.753C53.195 69.8743 52.948 69.9653 52.6794 70.026C52.4107 70.0953 52.0857 70.13 51.7044 70.13ZM55.1687 70V63.032H56.2997V65.892H57.9377C58.5184 65.892 58.995 65.9657 59.3677 66.113C59.7404 66.2603 60.0177 66.4813 60.1997 66.776C60.3817 67.062 60.4727 67.426 60.4727 67.868C60.4727 68.3013 60.3817 68.6783 60.1997 68.999C60.0264 69.3197 59.749 69.5667 59.3677 69.74C58.995 69.9133 58.5054 70 57.8987 70H55.1687ZM57.7947 69.077C58.254 69.077 58.6267 68.9947 58.9127 68.83C59.1987 68.6567 59.3417 68.3577 59.3417 67.933C59.3417 67.5083 59.2074 67.2223 58.9387 67.075C58.6787 66.919 58.3017 66.841 57.8077 66.841H56.2997V69.077H57.7947ZM61.5517 70V63.032H62.6827V70H61.5517ZM70.011 70H68.867V63.981H66.956C66.878 65.0817 66.774 66.022 66.644 66.802C66.5226 67.5733 66.3666 68.2017 66.176 68.687C65.994 69.1723 65.773 69.5277 65.513 69.753C65.253 69.9783 64.9453 70.091 64.59 70.091C64.4773 70.091 64.3646 70.0823 64.252 70.065C64.148 70.0563 64.0613 70.0347 63.992 70V69.142C64.044 69.1593 64.1003 69.1723 64.161 69.181C64.2216 69.1897 64.2823 69.194 64.343 69.194C64.5163 69.194 64.6723 69.116 64.811 68.96C64.9583 68.804 65.0883 68.5657 65.201 68.245C65.3223 67.9243 65.4306 67.5213 65.526 67.036C65.6213 66.542 65.7036 65.9613 65.773 65.294C65.851 64.6267 65.9203 63.8727 65.981 63.032H70.011V70ZM76.176 63.032H77.411L74.629 66.386L77.645 70H76.332L73.394 66.464V70H72.263V63.032H73.394V66.412L76.176 63.032ZM81.5101 62.915C82.3075 62.915 82.9011 63.1013 83.2911 63.474C83.6898 63.8467 83.8891 64.4403 83.8891 65.255V70H83.0701L82.8491 69.012H82.7971C82.6065 69.2633 82.4115 69.4757 82.2121 69.649C82.0215 69.8137 81.7961 69.935 81.5361 70.013C81.2848 70.091 80.9728 70.13 80.6001 70.13C80.2101 70.13 79.8591 70.0563 79.5471 69.909C79.2351 69.7617 78.9881 69.5363 78.8061 69.233C78.6241 68.921 78.5331 68.531 78.5331 68.063C78.5331 67.3697 78.7888 66.8367 79.3001 66.464C79.8115 66.0827 80.6001 65.8747 81.6661 65.84L82.7711 65.801V65.385C82.7711 64.8043 82.6541 64.4013 82.4201 64.176C82.1948 63.9507 81.8698 63.838 81.4451 63.838C81.1071 63.838 80.7821 63.8943 80.4701 64.007C80.1668 64.111 79.8765 64.2323 79.5991 64.371L79.2481 63.513C79.5428 63.3483 79.8851 63.2097 80.2751 63.097C80.6651 62.9757 81.0768 62.915 81.5101 62.915ZM81.8221 66.633C81.0248 66.6677 80.4701 66.8063 80.1581 67.049C79.8548 67.2917 79.7031 67.634 79.7031 68.076C79.7031 68.466 79.8115 68.752 80.0281 68.934C80.2448 69.116 80.5265 69.207 80.8731 69.207C81.4105 69.207 81.8611 69.0467 82.2251 68.726C82.5891 68.3967 82.7711 67.894 82.7711 67.218V66.594L81.8221 66.633Z" fill="black"/>
</svg>
