<svg width="125" height="90" viewBox="0 0 125 90" fill="none" xmlns="http://www.w3.org/2000/svg">
<rect x="0.5" width="124" height="90" rx="8" fill="#F0F0F0"/>
<path d="M69.2667 38C70.5735 38 71.2268 38 71.726 37.6263C72.165 37.2976 72.522 36.7731 72.7457 36.128C73 35.3946 73 34.4345 73 32.5143V31.4857C73 29.5655 73 28.6054 72.7457 27.872C72.522 27.2269 72.165 26.7024 71.726 26.3737C71.2269 26 70.5735 26 69.2667 26L55.7333 26C54.4265 26 53.7731 26 53.274 26.3737C52.835 26.7024 52.478 27.2269 52.2543 27.872C52 28.6054 52 29.5655 52 31.4857L52 32.5143C52 34.4345 52 35.3946 52.2543 36.128C52.478 36.7731 52.835 37.2976 53.274 37.6263C53.7731 38 54.4265 38 55.7333 38H69.2667Z" stroke="#5F5F5F" stroke-width="2" stroke-linecap="round" stroke-linejoin="round"/>
<path d="M59 32H66" stroke="#5F5F5F" stroke-width="2" stroke-linecap="round" stroke-linejoin="round"/>
<path d="M47.6548 70H46.2768L42.3898 65.294V70H41.2328V60.718H42.3898V65.216L46.1858 60.718H47.4858L43.7418 65.229L47.6548 70ZM50.0123 63.032V65.931H53.4963V63.032H54.6273V70H53.4963V66.893H50.0123V70H48.8813V63.032H50.0123ZM62.6092 66.503C62.6092 67.0837 62.5356 67.5993 62.3882 68.05C62.2496 68.492 62.0459 68.869 61.7772 69.181C61.5086 69.493 61.1836 69.7313 60.8022 69.896C60.4209 70.052 59.9962 70.13 59.5282 70.13C59.0949 70.13 58.6919 70.052 58.3192 69.896C57.9552 69.7313 57.6346 69.493 57.3572 69.181C57.0886 68.869 56.8806 68.492 56.7332 68.05C56.5859 67.5993 56.5122 67.0837 56.5122 66.503C56.5122 65.7317 56.6336 65.0817 56.8762 64.553C57.1276 64.0157 57.4829 63.6083 57.9422 63.331C58.4016 63.045 58.9432 62.902 59.5672 62.902C60.1652 62.902 60.6896 63.045 61.1402 63.331C61.5996 63.6083 61.9592 64.0157 62.2192 64.553C62.4792 65.0817 62.6092 65.7317 62.6092 66.503ZM57.6822 66.503C57.6822 67.049 57.7472 67.5257 57.8772 67.933C58.0072 68.3317 58.2109 68.6393 58.4882 68.856C58.7656 69.0727 59.1209 69.181 59.5542 69.181C59.9876 69.181 60.3429 69.0727 60.6202 68.856C60.8976 68.6393 61.1012 68.3317 61.2312 67.933C61.3699 67.5257 61.4392 67.049 61.4392 66.503C61.4392 65.9483 61.3699 65.476 61.2312 65.086C61.1012 64.696 60.8976 64.397 60.6202 64.189C60.3429 63.9723 59.9832 63.864 59.5412 63.864C58.8912 63.864 58.4189 64.098 58.1242 64.566C57.8296 65.034 57.6822 65.6797 57.6822 66.503ZM70.0673 63.032V70H68.9363V64.007H65.6213V70H64.4903V63.032H70.0673ZM76.2459 63.032H77.4809L74.6989 66.386L77.7149 70H76.4019L73.4639 66.464V70H72.3329V63.032H73.4639V66.412L76.2459 63.032ZM81.5799 62.915C82.3773 62.915 82.9709 63.1013 83.3609 63.474C83.7596 63.8467 83.9589 64.4403 83.9589 65.255V70H83.1399L82.9189 69.012H82.8669C82.6763 69.2633 82.4813 69.4757 82.2819 69.649C82.0913 69.8137 81.8659 69.935 81.6059 70.013C81.3546 70.091 81.0426 70.13 80.6699 70.13C80.2799 70.13 79.9289 70.0563 79.6169 69.909C79.3049 69.7617 79.0579 69.5363 78.8759 69.233C78.6939 68.921 78.6029 68.531 78.6029 68.063C78.6029 67.3697 78.8586 66.8367 79.3699 66.464C79.8813 66.0827 80.6699 65.8747 81.7359 65.84L82.8409 65.801V65.385C82.8409 64.8043 82.7239 64.4013 82.4899 64.176C82.2646 63.9507 81.9396 63.838 81.5149 63.838C81.1769 63.838 80.8519 63.8943 80.5399 64.007C80.2366 64.111 79.9463 64.2323 79.6689 64.371L79.3179 63.513C79.6126 63.3483 79.9549 63.2097 80.3449 63.097C80.7349 62.9757 81.1466 62.915 81.5799 62.915ZM81.8919 66.633C81.0946 66.6677 80.5399 66.8063 80.2279 67.049C79.9246 67.2917 79.7729 67.634 79.7729 68.076C79.7729 68.466 79.8813 68.752 80.0979 68.934C80.3146 69.116 80.5963 69.207 80.9429 69.207C81.4803 69.207 81.9309 69.0467 82.2949 68.726C82.6589 68.3967 82.8409 67.894 82.8409 67.218V66.594L81.8919 66.633Z" fill="black"/>
</svg>
