<svg width="125" height="90" viewBox="0 0 125 90" fill="none" xmlns="http://www.w3.org/2000/svg">
<rect x="0.5" width="124" height="90" rx="8" fill="#F0F0F0"/>
<path d="M54.5 27C54.5 26.0681 54.5 25.6022 54.6522 25.2346C54.8552 24.7446 55.2446 24.3552 55.7346 24.1522C56.1022 24 56.5681 24 57.5 24H67.5C68.4319 24 68.8978 24 69.2654 24.1522C69.7554 24.3552 70.1448 24.7446 70.3478 25.2346C70.5 25.6022 70.5 26.0681 70.5 27M59.5 40H65.5M62.5 24V40" stroke="#5F5F5F" stroke-width="2" stroke-linecap="round" stroke-linejoin="round"/>
<path d="M50.6091 70H49.4521V61.745H46.7481V60.718H53.2871V61.745H50.6091V70ZM56.3472 62.902C56.9105 62.902 57.3958 63.032 57.8032 63.292C58.2105 63.552 58.5225 63.9203 58.7392 64.397C58.9645 64.865 59.0772 65.4153 59.0772 66.048V66.737H54.6052C54.6225 67.5257 54.8088 68.128 55.1642 68.544C55.5195 68.9513 56.0178 69.155 56.6592 69.155C57.0752 69.155 57.4435 69.116 57.7642 69.038C58.0935 68.9513 58.4315 68.83 58.7782 68.674V69.675C58.4402 69.831 58.1065 69.9437 57.7772 70.013C57.4565 70.091 57.0665 70.13 56.6072 70.13C55.9832 70.13 55.4328 69.9957 54.9562 69.727C54.4795 69.4583 54.1068 69.0597 53.8382 68.531C53.5695 67.9937 53.4352 67.3393 53.4352 66.568C53.4352 65.8053 53.5565 65.151 53.7992 64.605C54.0418 64.059 54.3798 63.6387 54.8132 63.344C55.2552 63.0493 55.7665 62.902 56.3472 62.902ZM56.3472 63.838C55.8445 63.838 55.4458 64.0157 55.1512 64.371C54.8565 64.7177 54.6832 65.203 54.6312 65.827H57.9072C57.9072 65.4283 57.8508 65.0817 57.7382 64.787C57.6255 64.4923 57.4522 64.2627 57.2182 64.098C56.9928 63.9247 56.7025 63.838 56.3472 63.838ZM64.8311 63.032H66.0661L63.2841 66.386L66.3001 70H64.9871L62.0491 66.464V70H60.9181V63.032H62.0491V66.412L64.8311 63.032ZM70.054 70.13C69.4647 70.13 68.9447 70.0043 68.494 69.753C68.0433 69.5017 67.688 69.1117 67.428 68.583C67.1767 68.0543 67.051 67.3783 67.051 66.555C67.051 65.697 67.1853 64.9993 67.454 64.462C67.7227 63.9247 68.0867 63.5303 68.546 63.279C69.014 63.0277 69.5427 62.902 70.132 62.902C70.47 62.902 70.795 62.941 71.107 63.019C71.4277 63.0883 71.6877 63.175 71.887 63.279L71.536 64.228C71.3367 64.15 71.1027 64.0763 70.834 64.007C70.574 63.9377 70.3313 63.903 70.106 63.903C69.6813 63.903 69.3303 64.0027 69.053 64.202C68.7757 64.4013 68.5677 64.696 68.429 65.086C68.2903 65.476 68.221 65.9613 68.221 66.542C68.221 67.0967 68.2903 67.569 68.429 67.959C68.5677 68.349 68.7713 68.6437 69.04 68.843C69.3173 69.0423 69.6553 69.142 70.054 69.142C70.4093 69.142 70.7257 69.103 71.003 69.025C71.2803 68.947 71.536 68.8517 71.77 68.739V69.753C71.5447 69.8743 71.2977 69.9653 71.029 70.026C70.7603 70.0953 70.4353 70.13 70.054 70.13ZM78.1203 63.994H75.9753V70H74.8573V63.994H72.7383V63.032H78.1203V63.994Z" fill="black"/>
</svg>
