<svg width="189" height="56" viewBox="0 0 189 56" fill="none" xmlns="http://www.w3.org/2000/svg">
<mask id="path-1-inside-1_66_357" fill="transparent">
<path d="M0 0H189V56H0V0Z"/>
</mask>
<path d="M0 0H189V56H0V0Z" fill="transparent"/>
<path d="M189 55H0V57H189V55Z" fill="transparent" mask="url(#path-1-inside-1_66_357)"/>
<path d="M38 27H32M34 31H32M40 23H32M44 22.8V33.2C44 34.8802 44 35.7202 43.673 36.362C43.3854 36.9265 42.9265 37.3854 42.362 37.673C41.7202 38 40.8802 38 39.2 38H32.8C31.1198 38 30.2798 38 29.638 37.673C29.0735 37.3854 28.6146 36.9265 28.327 36.362C28 35.7202 28 34.8802 28 33.2V22.8C28 21.1198 28 20.2798 28.327 19.638C28.6146 19.0735 29.0735 18.6146 29.638 18.327C30.2798 18 31.1198 18 32.8 18H39.2C40.8802 18 41.7202 18 42.362 18.327C42.9265 18.6146 43.3854 19.0735 43.673 19.638C44 20.2798 44 21.1198 44 22.8Z" stroke="#205A52" stroke-width="1.5" stroke-linecap="round" stroke-linejoin="round"/>
<path d="M60.8417 23.68C60.2337 23.68 59.6844 23.7867 59.1937 24C58.7031 24.2027 58.2871 24.5067 57.9457 24.912C57.6044 25.3067 57.3431 25.792 57.1617 26.368C56.9804 26.9333 56.8897 27.5733 56.8897 28.288C56.8897 29.2267 57.0337 30.0427 57.3217 30.736C57.6204 31.4293 58.0577 31.9627 58.6337 32.336C59.2204 32.7093 59.9511 32.896 60.8257 32.896C61.3271 32.896 61.8017 32.8533 62.2497 32.768C62.6977 32.6827 63.1351 32.576 63.5617 32.448V33.696C63.1351 33.856 62.6924 33.9733 62.2337 34.048C61.7857 34.1227 61.2471 34.16 60.6177 34.16C59.4551 34.16 58.4844 33.92 57.7057 33.44C56.9271 32.96 56.3404 32.2773 55.9457 31.392C55.5617 30.5067 55.3697 29.4667 55.3697 28.272C55.3697 27.408 55.4871 26.6187 55.7217 25.904C55.9671 25.1893 56.3191 24.5707 56.7777 24.048C57.2471 23.5253 57.8231 23.1253 58.5057 22.848C59.1884 22.56 59.9724 22.416 60.8577 22.416C61.4444 22.416 62.0097 22.4747 62.5538 22.592C63.0978 22.7093 63.5831 22.8747 64.0097 23.088L63.4337 24.304C63.0817 24.144 62.6871 24 62.2497 23.872C61.8231 23.744 61.3537 23.68 60.8417 23.68ZM74.5271 36.976H73.1511V34H66.0631V25.424H67.4711V32.816H71.9031V25.424H73.3111V32.832H74.5271V36.976ZM79.6845 25.264C80.4205 25.264 81.0498 25.424 81.5725 25.744C82.1058 26.064 82.5112 26.5173 82.7885 27.104C83.0765 27.68 83.2205 28.3573 83.2205 29.136V29.984H77.3485C77.3698 30.9547 77.6152 31.696 78.0845 32.208C78.5645 32.7093 79.2312 32.96 80.0845 32.96C80.6285 32.96 81.1085 32.912 81.5245 32.816C81.9512 32.7093 82.3885 32.56 82.8365 32.368V33.6C82.3992 33.792 81.9672 33.9307 81.5405 34.016C81.1138 34.112 80.6072 34.16 80.0205 34.16C79.2098 34.16 78.4898 33.9947 77.8605 33.664C77.2418 33.3333 76.7565 32.8427 76.4045 32.192C76.0632 31.5307 75.8925 30.7253 75.8925 29.776C75.8925 28.8373 76.0472 28.032 76.3565 27.36C76.6765 26.688 77.1192 26.1707 77.6845 25.808C78.2605 25.4453 78.9272 25.264 79.6845 25.264ZM79.6685 26.416C78.9965 26.416 78.4632 26.6347 78.0685 27.072C77.6845 27.4987 77.4552 28.096 77.3805 28.864H81.7485C81.7485 28.3733 81.6738 27.9467 81.5245 27.584C81.3752 27.2213 81.1458 26.9387 80.8365 26.736C80.5378 26.5227 80.1485 26.416 79.6685 26.416ZM87.0117 25.424V28.992H91.6677V25.424H93.0758V34H91.6677V30.176H87.0117V34H85.6037V25.424H87.0117ZM99.2392 25.28C100.285 25.28 101.058 25.5093 101.559 25.968C102.061 26.4267 102.311 27.1573 102.311 28.16V34H101.287L101.015 32.784H100.951C100.706 33.0933 100.45 33.3547 100.183 33.568C99.9272 33.7707 99.6286 33.92 99.2872 34.016C98.9566 34.112 98.5512 34.16 98.0712 34.16C97.5592 34.16 97.0952 34.0693 96.6792 33.888C96.2739 33.7067 95.9539 33.4293 95.7192 33.056C95.4846 32.672 95.3672 32.192 95.3672 31.616C95.3672 30.7627 95.7032 30.1067 96.3752 29.648C97.0472 29.1787 98.0819 28.9227 99.4792 28.88L100.935 28.832V28.32C100.935 27.6053 100.781 27.1093 100.471 26.832C100.162 26.5547 99.7246 26.416 99.1592 26.416C98.7112 26.416 98.2846 26.4853 97.8792 26.624C97.4739 26.752 97.0952 26.9013 96.7432 27.072L96.3112 26.016C96.6846 25.8133 97.1272 25.6427 97.6392 25.504C98.1512 25.3547 98.6846 25.28 99.2392 25.28ZM99.6552 29.856C98.5886 29.8987 97.8472 30.0693 97.4312 30.368C97.0259 30.6667 96.8232 31.088 96.8232 31.632C96.8232 32.112 96.9672 32.464 97.2552 32.688C97.5539 32.912 97.9326 33.024 98.3912 33.024C99.1166 33.024 99.7192 32.8267 100.199 32.432C100.679 32.0267 100.919 31.408 100.919 30.576V29.808L99.6552 29.856ZM109.24 25.264C110.296 25.264 111.144 25.632 111.784 26.368C112.435 27.104 112.76 28.2133 112.76 29.696C112.76 30.6667 112.611 31.488 112.312 32.16C112.024 32.8213 111.613 33.3227 111.08 33.664C110.557 33.9947 109.939 34.16 109.224 34.16C108.787 34.16 108.397 34.1013 108.056 33.984C107.715 33.8667 107.421 33.7173 107.176 33.536C106.941 33.344 106.739 33.136 106.568 32.912H106.472C106.493 33.0933 106.515 33.3227 106.536 33.6C106.557 33.8773 106.568 34.1173 106.568 34.32V37.84H105.16V25.424H106.312L106.504 26.592H106.568C106.739 26.3467 106.941 26.1227 107.176 25.92C107.421 25.7173 107.709 25.5573 108.04 25.44C108.381 25.3227 108.781 25.264 109.24 25.264ZM108.984 26.448C108.408 26.448 107.944 26.56 107.592 26.784C107.24 26.9973 106.984 27.3227 106.824 27.76C106.664 28.1973 106.579 28.752 106.568 29.424V29.696C106.568 30.4 106.643 30.9973 106.792 31.488C106.941 31.9787 107.192 32.352 107.544 32.608C107.907 32.864 108.397 32.992 109.016 32.992C109.539 32.992 109.965 32.848 110.296 32.56C110.637 32.272 110.888 31.8827 111.048 31.392C111.219 30.8907 111.304 30.32 111.304 29.68C111.304 28.6987 111.112 27.9147 110.728 27.328C110.355 26.7413 109.773 26.448 108.984 26.448ZM116.532 30.656C116.532 30.752 116.526 30.8907 116.516 31.072C116.516 31.2427 116.51 31.4293 116.5 31.632C116.489 31.824 116.478 32.0107 116.468 32.192C116.457 32.3627 116.446 32.5013 116.436 32.608L121.028 25.424H122.756V34H121.444V28.944C121.444 28.7733 121.444 28.5493 121.444 28.272C121.454 27.9947 121.465 27.7227 121.476 27.456C121.486 27.1787 121.497 26.9707 121.508 26.832L116.948 34H115.204V25.424H116.532V30.656ZM127.013 30.656C127.013 30.752 127.008 30.8907 126.997 31.072C126.997 31.2427 126.992 31.4293 126.981 31.632C126.97 31.824 126.96 32.0107 126.949 32.192C126.938 32.3627 126.928 32.5013 126.917 32.608L131.509 25.424H133.237V34H131.925V28.944C131.925 28.7733 131.925 28.5493 131.925 28.272C131.936 27.9947 131.946 27.7227 131.957 27.456C131.968 27.1787 131.978 26.9707 131.989 26.832L127.429 34H125.685V25.424H127.013V30.656Z" fill="#205A52"/>
</svg>
